<svg xmlns="http://www.w3.org/2000/svg" xmlns:xlink="http://www.w3.org/1999/xlink" width="3456" zoomAndPan="magnify" viewBox="0 0 2592 5183.999924" height="6912" preserveAspectRatio="xMidYMid meet" version="1.0"><defs><g/><clipPath id="b80e5108d0"><path d="M 1619.023438 2121.066406 L 2592 2121.066406 L 2592 3771.550781 L 1619.023438 3771.550781 Z M 1619.023438 2121.066406 " clip-rule="nonzero"/></clipPath><clipPath id="d99718c0c9"><path d="M 2444.265625 2121.066406 C 1988.496094 2121.066406 1619.023438 2490.542969 1619.023438 2946.308594 C 1619.023438 3402.078125 1988.496094 3771.550781 2444.265625 3771.550781 C 2900.03125 3771.550781 3269.507812 3402.078125 3269.507812 2946.308594 C 3269.507812 2490.542969 2900.03125 2121.066406 2444.265625 2121.066406 Z M 2444.265625 2121.066406 " clip-rule="nonzero"/></clipPath><clipPath id="508dabfff3"><path d="M 621.648438 4250.449219 L 1970.351562 4250.449219 L 1970.351562 5184 L 621.648438 5184 Z M 621.648438 4250.449219 " clip-rule="nonzero"/></clipPath><clipPath id="2820952a7e"><path d="M 1296 4250.449219 C 923.566406 4250.449219 621.648438 4552.367188 621.648438 4924.800781 C 621.648438 5297.234375 923.566406 5599.152344 1296 5599.152344 C 1668.433594 5599.152344 1970.351562 5297.234375 1970.351562 4924.800781 C 1970.351562 4552.367188 1668.433594 4250.449219 1296 4250.449219 Z M 1296 4250.449219 " clip-rule="nonzero"/></clipPath><clipPath id="d4e95b094b"><path d="M 739.824219 3133.425781 L 1296 3133.425781 L 1296 3689.601562 L 739.824219 3689.601562 Z M 739.824219 3133.425781 " clip-rule="nonzero"/></clipPath><clipPath id="8b077a978e"><path d="M 1017.914062 3133.425781 C 864.328125 3133.425781 739.824219 3257.929688 739.824219 3411.515625 C 739.824219 3565.097656 864.328125 3689.601562 1017.914062 3689.601562 C 1171.496094 3689.601562 1296 3565.097656 1296 3411.515625 C 1296 3257.929688 1171.496094 3133.425781 1017.914062 3133.425781 Z M 1017.914062 3133.425781 " clip-rule="nonzero"/></clipPath></defs><rect x="-259.2" width="3110.4" fill="#ffffff" y="-518.399992" height="6220.799908" fill-opacity="1"/><rect x="-259.2" width="3110.4" fill="#a8dadc" y="-518.399992" height="6220.799908" fill-opacity="1"/><g clip-path="url(#b80e5108d0)"><g clip-path="url(#d99718c0c9)"><path fill="#e63946" d="M 1619.023438 2121.066406 L 3269.507812 2121.066406 L 3269.507812 3771.550781 L 1619.023438 3771.550781 Z M 1619.023438 2121.066406 " fill-opacity="1" fill-rule="nonzero"/></g></g><g clip-path="url(#508dabfff3)"><g clip-path="url(#2820952a7e)"><path fill="#f1faee" d="M 621.648438 4250.449219 L 1970.351562 4250.449219 L 1970.351562 5599.152344 L 621.648438 5599.152344 Z M 621.648438 4250.449219 " fill-opacity="1" fill-rule="nonzero"/></g></g><g clip-path="url(#d4e95b094b)"><g clip-path="url(#8b077a978e)"><path fill="#1d3557" d="M 739.824219 3133.425781 L 1296 3133.425781 L 1296 3689.601562 L 739.824219 3689.601562 Z M 739.824219 3133.425781 " fill-opacity="1" fill-rule="nonzero"/></g></g><g fill="#000000" fill-opacity="1"><g transform="translate(111.90651, 1744.647961)"><g><path d="M 6.058594 0 L 55.738281 0 L 55.738281 -7.472656 L 14.238281 -7.472656 L 14.238281 -33.121094 L 50.691406 -33.121094 L 50.691406 -40.390625 L 14.238281 -40.390625 L 14.238281 -63.714844 L 54.730469 -63.714844 L 54.730469 -71.1875 L 6.058594 -71.1875 Z M 6.058594 0 "/></g></g></g><g fill="#000000" fill-opacity="1"><g transform="translate(170.162141, 1744.647961)"><g><path d="M 1.007812 0 L 9.996094 0 L 24.738281 -21.609375 L 39.28125 0 L 48.367188 0 L 29.585938 -26.457031 L 47.359375 -50.992188 L 38.472656 -50.992188 L 24.738281 -31.101562 L 10.90625 -50.992188 L 2.019531 -50.992188 L 19.792969 -26.457031 Z M 1.007812 0 "/></g></g></g><g fill="#000000" fill-opacity="1"><g transform="translate(219.533048, 1744.647961)"><g><path d="M 5.046875 21.203125 L 12.722656 21.203125 L 12.722656 -8.480469 L 12.824219 -8.480469 C 17.265625 -1.917969 24.132812 2.019531 32.613281 2.019531 C 47.457031 2.019531 58.464844 -9.59375 58.464844 -25.445312 C 58.464844 -41.398438 47.457031 -53.011719 32.515625 -53.011719 C 23.929688 -53.011719 16.964844 -48.972656 12.621094 -42.207031 L 12.519531 -42.207031 L 11.714844 -50.992188 L 5.046875 -50.992188 Z M 31.605469 -5.046875 C 20.597656 -5.046875 12.519531 -13.933594 12.519531 -25.445312 C 12.519531 -37.058594 20.597656 -45.945312 31.605469 -45.945312 C 42.613281 -45.945312 50.691406 -37.261719 50.691406 -25.445312 C 50.691406 -13.933594 42.710938 -5.046875 31.605469 -5.046875 Z M 31.605469 -5.046875 "/></g></g></g><g fill="#000000" fill-opacity="1"><g transform="translate(281.019516, 1744.647961)"><g><path d="M 5.046875 0 L 12.722656 0 L 12.722656 -74.21875 L 5.046875 -74.21875 Z M 5.046875 0 "/></g></g></g><g fill="#000000" fill-opacity="1"><g transform="translate(298.789008, 1744.647961)"><g><path d="M 30.191406 2.019531 C 46.652344 2.019531 57.453125 -8.886719 57.453125 -25.445312 C 57.453125 -42.105469 46.652344 -53.011719 30.191406 -53.011719 C 13.832031 -53.011719 3.027344 -42.105469 3.027344 -25.445312 C 3.027344 -8.886719 13.832031 2.019531 30.191406 2.019531 Z M 30.191406 -4.949219 C 18.378906 -4.949219 10.703125 -13.027344 10.703125 -25.445312 C 10.703125 -37.867188 18.378906 -45.945312 30.191406 -45.945312 C 42.003906 -45.945312 49.679688 -37.867188 49.679688 -25.445312 C 49.679688 -13.027344 42.003906 -4.949219 30.191406 -4.949219 Z M 30.191406 -4.949219 "/></g></g></g><g fill="#000000" fill-opacity="1"><g transform="translate(359.265813, 1744.647961)"><g><path d="M 27.164062 -53.113281 C 20.699219 -53.113281 15.246094 -49.175781 12.421875 -43.015625 L 12.320312 -43.015625 L 11.613281 -50.992188 L 5.046875 -50.992188 L 5.046875 0 L 12.722656 0 L 12.722656 -28.070312 C 12.722656 -39.179688 17.871094 -45.945312 26.050781 -45.945312 C 31.605469 -45.945312 35.339844 -42.105469 36.148438 -34.9375 L 42.8125 -37.160156 C 41.804688 -47.359375 35.847656 -53.113281 27.164062 -53.113281 Z M 27.164062 -53.113281 "/></g></g></g><g fill="#000000" fill-opacity="1"><g transform="translate(404.093373, 1744.647961)"><g><path d="M 31.203125 2.019531 C 42.613281 2.019531 52.203125 -3.734375 55.535156 -11.914062 L 48.871094 -14.640625 C 46.042969 -9.085938 39.28125 -4.949219 31.300781 -4.949219 C 20.296875 -4.949219 12.117188 -12.320312 11.007812 -22.921875 L 53.921875 -22.921875 C 54.023438 -23.929688 54.023438 -25.042969 54.023438 -25.949219 C 53.820312 -41.703125 44.023438 -53.011719 29.082031 -53.011719 C 13.933594 -53.011719 3.027344 -41.703125 3.027344 -26.050781 C 3.027344 -9.792969 14.945312 2.019531 31.203125 2.019531 Z M 11.105469 -29.6875 C 12.519531 -39.378906 19.488281 -45.945312 28.980469 -45.945312 C 38.269531 -45.945312 44.832031 -40.085938 45.84375 -29.6875 Z M 11.105469 -29.6875 "/></g></g></g><g fill="#000000" fill-opacity="1"><g transform="translate(462.046118, 1744.647961)"><g/></g></g><g fill="#000000" fill-opacity="1"><g transform="translate(489.508036, 1744.647961)"><g><path d="M 24.535156 2.121094 C 37.867188 2.121094 45.539062 -5.855469 45.539062 -19.792969 L 45.539062 -71.1875 L 37.058594 -71.1875 L 37.058594 -20.597656 C 37.058594 -10.804688 32.414062 -5.25 24.234375 -5.25 C 16.054688 -5.25 10.601562 -10.402344 9.390625 -19.183594 L 2.019531 -16.054688 C 4.441406 -4.542969 12.621094 2.121094 24.535156 2.121094 Z M 24.535156 2.121094 "/></g></g></g><g fill="#000000" fill-opacity="1"><g transform="translate(540.090491, 1744.647961)"><g><path d="M 31.203125 2.019531 C 42.613281 2.019531 52.203125 -3.734375 55.535156 -11.914062 L 48.871094 -14.640625 C 46.042969 -9.085938 39.28125 -4.949219 31.300781 -4.949219 C 20.296875 -4.949219 12.117188 -12.320312 11.007812 -22.921875 L 53.921875 -22.921875 C 54.023438 -23.929688 54.023438 -25.042969 54.023438 -25.949219 C 53.820312 -41.703125 44.023438 -53.011719 29.082031 -53.011719 C 13.933594 -53.011719 3.027344 -41.703125 3.027344 -26.050781 C 3.027344 -9.792969 14.945312 2.019531 31.203125 2.019531 Z M 11.105469 -29.6875 C 12.519531 -39.378906 19.488281 -45.945312 28.980469 -45.945312 C 38.269531 -45.945312 44.832031 -40.085938 45.84375 -29.6875 Z M 11.105469 -29.6875 "/></g></g></g><g fill="#000000" fill-opacity="1"><g transform="translate(598.043237, 1744.647961)"><g><path d="M 17.972656 0 L 27.96875 0 L 40.894531 -42.914062 L 41.097656 -42.914062 L 54.425781 0 L 64.320312 0 L 81.082031 -50.992188 L 73.105469 -50.992188 L 59.574219 -7.472656 L 59.472656 -7.472656 L 45.84375 -50.992188 L 36.25 -50.992188 L 22.820312 -7.574219 L 22.71875 -7.574219 L 9.085938 -50.992188 L 1.007812 -50.992188 Z M 17.972656 0 "/></g></g></g><g fill="#000000" fill-opacity="1"><g transform="translate(680.126143, 1744.647961)"><g><path d="M 31.203125 2.019531 C 42.613281 2.019531 52.203125 -3.734375 55.535156 -11.914062 L 48.871094 -14.640625 C 46.042969 -9.085938 39.28125 -4.949219 31.300781 -4.949219 C 20.296875 -4.949219 12.117188 -12.320312 11.007812 -22.921875 L 53.921875 -22.921875 C 54.023438 -23.929688 54.023438 -25.042969 54.023438 -25.949219 C 53.820312 -41.703125 44.023438 -53.011719 29.082031 -53.011719 C 13.933594 -53.011719 3.027344 -41.703125 3.027344 -26.050781 C 3.027344 -9.792969 14.945312 2.019531 31.203125 2.019531 Z M 11.105469 -29.6875 C 12.519531 -39.378906 19.488281 -45.945312 28.980469 -45.945312 C 38.269531 -45.945312 44.832031 -40.085938 45.84375 -29.6875 Z M 11.105469 -29.6875 "/></g></g></g><g fill="#000000" fill-opacity="1"><g transform="translate(738.078888, 1744.647961)"><g><path d="M 5.046875 0 L 12.722656 0 L 12.722656 -74.21875 L 5.046875 -74.21875 Z M 5.046875 0 "/></g></g></g><g fill="#000000" fill-opacity="1"><g transform="translate(755.848342, 1744.647961)"><g><path d="M 27.164062 -53.113281 C 20.699219 -53.113281 15.246094 -49.175781 12.421875 -43.015625 L 12.320312 -43.015625 L 11.613281 -50.992188 L 5.046875 -50.992188 L 5.046875 0 L 12.722656 0 L 12.722656 -28.070312 C 12.722656 -39.179688 17.871094 -45.945312 26.050781 -45.945312 C 31.605469 -45.945312 35.339844 -42.105469 36.148438 -34.9375 L 42.8125 -37.160156 C 41.804688 -47.359375 35.847656 -53.113281 27.164062 -53.113281 Z M 27.164062 -53.113281 "/></g></g></g><g fill="#000000" fill-opacity="1"><g transform="translate(800.675942, 1744.647961)"><g><path d="M 24.636719 23.222656 C 40.59375 23.222656 50.691406 14.238281 50.691406 -1.007812 L 50.589844 -50.992188 L 42.914062 -50.992188 L 42.914062 -19.589844 C 42.914062 -9.894531 35.242188 -2.929688 26.355469 -2.929688 C 17.46875 -2.929688 12.117188 -9.390625 12.117188 -18.476562 L 12.117188 -50.992188 L 4.441406 -50.992188 L 4.441406 -18.476562 C 4.441406 -5.453125 12.722656 4.039062 25.445312 4.039062 C 32.515625 4.039062 39.378906 0.503906 42.914062 -5.453125 L 43.015625 -5.453125 L 43.015625 -1.007812 C 43.015625 9.792969 35.949219 16.257812 24.4375 16.257812 C 15.347656 16.257812 8.480469 11.914062 5.25 5.453125 L -1.3125 9.894531 C 2.625 17.972656 12.015625 23.222656 24.636719 23.222656 Z M 24.636719 23.222656 "/></g></g></g><g fill="#000000" fill-opacity="1"><g transform="translate(856.407477, 1744.647961)"><g><path d="M 4.039062 13.328125 C 12.117188 15.347656 17.972656 9.695312 17.972656 -0.101562 C 17.972656 -6.765625 15.347656 -9.792969 11.714844 -9.792969 C 8.582031 -9.792969 6.261719 -7.574219 6.261719 -4.34375 C 6.160156 -0.707031 9.695312 2.222656 14.136719 0.605469 C 14.441406 6.664062 10.199219 11.308594 5.148438 9.792969 Z M 4.039062 13.328125 "/></g></g></g><g fill="#000000" fill-opacity="1"><g transform="translate(878.417427, 1744.647961)"><g/></g></g><g fill="#000000" fill-opacity="1"><g transform="translate(905.879345, 1744.647961)"><g><path d="M 6.058594 0 L 55.738281 0 L 55.738281 -7.472656 L 14.238281 -7.472656 L 14.238281 -33.121094 L 50.691406 -33.121094 L 50.691406 -40.390625 L 14.238281 -40.390625 L 14.238281 -63.714844 L 54.730469 -63.714844 L 54.730469 -71.1875 L 6.058594 -71.1875 Z M 6.058594 0 "/></g></g></g><g fill="#000000" fill-opacity="1"><g transform="translate(964.135017, 1744.647961)"><g><path d="M 5.046875 0 L 12.722656 0 L 12.722656 -74.21875 L 5.046875 -74.21875 Z M 5.046875 0 "/></g></g></g><g fill="#000000" fill-opacity="1"><g transform="translate(981.904548, 1744.647961)"><g><path d="M 31.203125 2.019531 C 42.613281 2.019531 52.203125 -3.734375 55.535156 -11.914062 L 48.871094 -14.640625 C 46.042969 -9.085938 39.28125 -4.949219 31.300781 -4.949219 C 20.296875 -4.949219 12.117188 -12.320312 11.007812 -22.921875 L 53.921875 -22.921875 C 54.023438 -23.929688 54.023438 -25.042969 54.023438 -25.949219 C 53.820312 -41.703125 44.023438 -53.011719 29.082031 -53.011719 C 13.933594 -53.011719 3.027344 -41.703125 3.027344 -26.050781 C 3.027344 -9.792969 14.945312 2.019531 31.203125 2.019531 Z M 11.105469 -29.6875 C 12.519531 -39.378906 19.488281 -45.945312 28.980469 -45.945312 C 38.269531 -45.945312 44.832031 -40.085938 45.84375 -29.6875 Z M 11.105469 -29.6875 "/></g></g></g><g fill="#000000" fill-opacity="1"><g transform="translate(1039.857256, 1744.647961)"><g><path d="M 29.988281 2.019531 C 43.117188 2.019531 53.921875 -6.460938 55.839844 -18.175781 L 48.367188 -19.691406 C 46.953125 -10.90625 39.28125 -4.949219 29.988281 -4.949219 C 18.882812 -4.949219 10.703125 -13.226562 10.703125 -25.445312 C 10.703125 -37.664062 18.277344 -45.945312 28.476562 -45.945312 C 35.949219 -45.945312 42.410156 -41.199219 44.429688 -33.828125 L 51.902344 -35.542969 C 49.378906 -45.84375 39.984375 -53.011719 28.476562 -53.011719 C 13.53125 -53.011719 3.027344 -41.601562 3.027344 -25.445312 C 3.027344 -9.390625 14.136719 2.019531 29.988281 2.019531 Z M 29.988281 2.019531 "/></g></g></g><g fill="#000000" fill-opacity="1"><g transform="translate(1097.709078, 1744.647961)"><g><path d="M 27.261719 2.019531 C 35.949219 2.019531 43.722656 -3.433594 45.136719 -12.320312 L 38.875 -14.945312 C 37.867188 -8.382812 33.121094 -4.644531 27.96875 -4.644531 C 22.417969 -4.644531 18.882812 -8.785156 18.882812 -14.539062 L 18.882812 -44.632812 L 41.703125 -44.632812 L 41.703125 -50.992188 L 18.882812 -50.992188 L 18.882812 -67.957031 L 11.207031 -66.140625 L 11.207031 -50.992188 L 0 -50.992188 L 0 -44.632812 L 11.207031 -44.632812 L 11.207031 -13.734375 C 11.207031 -4.441406 17.671875 2.019531 27.261719 2.019531 Z M 27.261719 2.019531 "/></g></g></g><g fill="#000000" fill-opacity="1"><g transform="translate(1143.243336, 1744.647961)"><g><path d="M 27.164062 -53.113281 C 20.699219 -53.113281 15.246094 -49.175781 12.421875 -43.015625 L 12.320312 -43.015625 L 11.613281 -50.992188 L 5.046875 -50.992188 L 5.046875 0 L 12.722656 0 L 12.722656 -28.070312 C 12.722656 -39.179688 17.871094 -45.945312 26.050781 -45.945312 C 31.605469 -45.945312 35.339844 -42.105469 36.148438 -34.9375 L 42.8125 -37.160156 C 41.804688 -47.359375 35.847656 -53.113281 27.164062 -53.113281 Z M 27.164062 -53.113281 "/></g></g></g><g fill="#000000" fill-opacity="1"><g transform="translate(1188.070936, 1744.647961)"><g><path d="M 30.191406 2.019531 C 46.652344 2.019531 57.453125 -8.886719 57.453125 -25.445312 C 57.453125 -42.105469 46.652344 -53.011719 30.191406 -53.011719 C 13.832031 -53.011719 3.027344 -42.105469 3.027344 -25.445312 C 3.027344 -8.886719 13.832031 2.019531 30.191406 2.019531 Z M 30.191406 -4.949219 C 18.378906 -4.949219 10.703125 -13.027344 10.703125 -25.445312 C 10.703125 -37.867188 18.378906 -45.945312 30.191406 -45.945312 C 42.003906 -45.945312 49.679688 -37.867188 49.679688 -25.445312 C 49.679688 -13.027344 42.003906 -4.949219 30.191406 -4.949219 Z M 30.191406 -4.949219 "/></g></g></g><g fill="#000000" fill-opacity="1"><g transform="translate(1248.547779, 1744.647961)"><g><path d="M 32.414062 -53.011719 C 23.527344 -53.011719 17.164062 -49.578125 12.824219 -43.417969 L 12.722656 -43.417969 L 12.015625 -50.992188 L 5.046875 -50.992188 L 5.046875 0 L 12.722656 0 L 12.722656 -28.777344 C 12.722656 -39.179688 20.09375 -46.347656 30.292969 -46.347656 C 38.371094 -46.347656 43.519531 -40.792969 43.519531 -32.109375 L 43.519531 0 L 51.296875 0 L 51.296875 -32.917969 C 51.296875 -45.539062 44.125 -53.011719 32.414062 -53.011719 Z M 32.414062 -53.011719 "/></g></g></g><g fill="#000000" fill-opacity="1"><g transform="translate(1304.380354, 1744.647961)"><g><path d="M 9.695312 -60.886719 C 13.027344 -60.886719 15.449219 -63.109375 15.449219 -66.542969 C 15.449219 -69.875 13.027344 -72.097656 9.695312 -72.097656 C 6.261719 -72.097656 4.039062 -69.875 4.039062 -66.542969 C 4.039062 -63.109375 6.261719 -60.886719 9.695312 -60.886719 Z M 5.753906 0 L 13.429688 0 L 13.429688 -50.992188 L 5.753906 -50.992188 Z M 5.753906 0 "/></g></g></g><g fill="#000000" fill-opacity="1"><g transform="translate(1323.866169, 1744.647961)"><g><path d="M 29.988281 2.019531 C 43.117188 2.019531 53.921875 -6.460938 55.839844 -18.175781 L 48.367188 -19.691406 C 46.953125 -10.90625 39.28125 -4.949219 29.988281 -4.949219 C 18.882812 -4.949219 10.703125 -13.226562 10.703125 -25.445312 C 10.703125 -37.664062 18.277344 -45.945312 28.476562 -45.945312 C 35.949219 -45.945312 42.410156 -41.199219 44.429688 -33.828125 L 51.902344 -35.542969 C 49.378906 -45.84375 39.984375 -53.011719 28.476562 -53.011719 C 13.53125 -53.011719 3.027344 -41.601562 3.027344 -25.445312 C 3.027344 -9.390625 14.136719 2.019531 29.988281 2.019531 Z M 29.988281 2.019531 "/></g></g></g><g fill="#000000" fill-opacity="1"><g transform="translate(1381.717991, 1744.647961)"><g><path d="M 26.152344 2.019531 C 38.472656 2.019531 47.761719 -5.046875 47.761719 -14.640625 C 47.761719 -22.214844 42.613281 -26.457031 30.59375 -28.980469 L 22.316406 -30.59375 C 15.246094 -32.109375 12.21875 -34.230469 12.21875 -37.964844 C 12.320312 -42.308594 17.066406 -46.246094 23.527344 -46.246094 C 30.796875 -46.246094 36.148438 -42.308594 36.855469 -36.957031 L 44.226562 -38.976562 C 42.308594 -47.257812 34.332031 -53.011719 23.628906 -53.011719 C 12.722656 -53.011719 4.847656 -46.449219 4.746094 -37.5625 C 4.746094 -30.089844 9.289062 -25.851562 19.890625 -23.628906 L 27.96875 -22.011719 C 36.554688 -20.296875 40.289062 -17.871094 40.289062 -13.933594 C 40.289062 -8.683594 34.128906 -4.949219 26.152344 -4.949219 C 17.066406 -4.949219 10.199219 -9.894531 9.59375 -16.964844 L 2.019531 -15.449219 C 2.929688 -4.542969 13.429688 2.019531 26.152344 2.019531 Z M 26.152344 2.019531 "/></g></g></g><g fill="#000000" fill-opacity="1"><g transform="translate(1431.492822, 1744.647961)"><g/></g></g><g fill="#000000" fill-opacity="1"><g transform="translate(1458.95474, 1744.647961)"><g><path d="M 55.839844 -13.734375 C 59.171875 -18.074219 62 -23.222656 64.421875 -28.980469 L 58.464844 -34.332031 C 56.546875 -28.273438 53.820312 -22.820312 50.488281 -18.476562 L 31.707031 -35.644531 C 44.832031 -40.691406 50.386719 -46.652344 50.386719 -55.335938 C 50.386719 -66.644531 41.703125 -72.90625 30.59375 -72.90625 C 19.183594 -72.90625 10.804688 -65.230469 10.804688 -54.730469 C 10.703125 -48.164062 14.238281 -42.511719 18.175781 -38.167969 C 7.574219 -33.320312 3.027344 -27.164062 3.027344 -17.773438 C 3.027344 -5.957031 12.824219 2.523438 26.554688 2.523438 C 35.441406 2.523438 43.722656 -1.414062 50.589844 -8.078125 L 59.574219 0 L 70.886719 0 Z M 30.59375 -65.433594 C 37.058594 -65.433594 42.410156 -60.789062 42.308594 -54.628906 C 42.308594 -48.871094 37.5625 -44.53125 26.355469 -40.492188 C 21.609375 -44.832031 18.984375 -49.578125 18.882812 -54.425781 C 18.882812 -60.988281 23.929688 -65.433594 30.59375 -65.433594 Z M 27.566406 -4.949219 C 18.175781 -4.949219 11.308594 -10.402344 11.308594 -17.972656 C 11.308594 -25.144531 14.945312 -29.585938 23.527344 -32.917969 L 45.238281 -12.925781 C 40.289062 -7.875 34.433594 -4.949219 27.566406 -4.949219 Z M 27.566406 -4.949219 "/></g></g></g><g fill="#000000" fill-opacity="1"><g transform="translate(1529.830785, 1744.647961)"><g/></g></g><g fill="#000000" fill-opacity="1"><g transform="translate(1557.292704, 1744.647961)"><g><path d="M 1.007812 0 L 9.996094 0 L 16.558594 -17.066406 L 50.890625 -17.066406 L 57.355469 0 L 66.238281 0 L 38.773438 -71.1875 L 28.675781 -71.1875 Z M 18.984375 -24.535156 L 33.625 -62.90625 L 33.828125 -62.90625 L 48.367188 -24.535156 Z M 18.984375 -24.535156 "/></g></g></g><g fill="#000000" fill-opacity="1"><g transform="translate(1624.534104, 1744.647961)"><g><path d="M 5.046875 21.203125 L 12.722656 21.203125 L 12.722656 -8.480469 L 12.824219 -8.480469 C 17.265625 -1.917969 24.132812 2.019531 32.613281 2.019531 C 47.457031 2.019531 58.464844 -9.59375 58.464844 -25.445312 C 58.464844 -41.398438 47.457031 -53.011719 32.515625 -53.011719 C 23.929688 -53.011719 16.964844 -48.972656 12.621094 -42.207031 L 12.519531 -42.207031 L 11.714844 -50.992188 L 5.046875 -50.992188 Z M 31.605469 -5.046875 C 20.597656 -5.046875 12.519531 -13.933594 12.519531 -25.445312 C 12.519531 -37.058594 20.597656 -45.945312 31.605469 -45.945312 C 42.613281 -45.945312 50.691406 -37.261719 50.691406 -25.445312 C 50.691406 -13.933594 42.710938 -5.046875 31.605469 -5.046875 Z M 31.605469 -5.046875 "/></g></g></g><g fill="#000000" fill-opacity="1"><g transform="translate(1686.020571, 1744.647961)"><g><path d="M 5.046875 21.203125 L 12.722656 21.203125 L 12.722656 -8.480469 L 12.824219 -8.480469 C 17.265625 -1.917969 24.132812 2.019531 32.613281 2.019531 C 47.457031 2.019531 58.464844 -9.59375 58.464844 -25.445312 C 58.464844 -41.398438 47.457031 -53.011719 32.515625 -53.011719 C 23.929688 -53.011719 16.964844 -48.972656 12.621094 -42.207031 L 12.519531 -42.207031 L 11.714844 -50.992188 L 5.046875 -50.992188 Z M 31.605469 -5.046875 C 20.597656 -5.046875 12.519531 -13.933594 12.519531 -25.445312 C 12.519531 -37.058594 20.597656 -45.945312 31.605469 -45.945312 C 42.613281 -45.945312 50.691406 -37.261719 50.691406 -25.445312 C 50.691406 -13.933594 42.710938 -5.046875 31.605469 -5.046875 Z M 31.605469 -5.046875 "/></g></g></g><g fill="#000000" fill-opacity="1"><g transform="translate(1747.507038, 1744.647961)"><g><path d="M 21.710938 2.019531 C 30.796875 2.019531 37.867188 -2.019531 41.5 -8.480469 L 41.601562 -8.480469 L 41.703125 -6.160156 C 42.003906 -1.515625 45.136719 2.019531 50.082031 2.019531 C 54.023438 2.019531 58.261719 -0.101562 60.382812 -3.230469 L 56.242188 -8.078125 C 55.132812 -6.261719 53.515625 -5.046875 52.101562 -5.046875 C 50.488281 -5.046875 49.378906 -6.460938 49.378906 -8.480469 L 49.378906 -34.332031 C 49.378906 -45.742188 40.1875 -53.011719 27.164062 -53.011719 C 13.933594 -53.011719 4.039062 -45.136719 3.128906 -36.753906 L 10.097656 -33.828125 C 10.5 -39.886719 17.265625 -46.042969 26.859375 -46.042969 C 35.746094 -46.042969 41.804688 -41.90625 41.804688 -35.542969 C 41.804688 -33.320312 40.1875 -31.910156 37.664062 -31.605469 L 25.042969 -30.089844 C 8.480469 -28.070312 2.019531 -21.507812 2.019531 -13.328125 C 2.019531 -4.242188 10.097656 2.019531 21.710938 2.019531 Z M 23.023438 -4.949219 C 15.246094 -4.949219 9.695312 -8.28125 9.695312 -13.429688 C 9.695312 -18.074219 13.53125 -22.011719 25.851562 -23.527344 L 41.601562 -25.445312 L 41.601562 -21.8125 C 41.601562 -11.914062 33.726562 -4.949219 23.023438 -4.949219 Z M 23.023438 -4.949219 "/></g></g></g><g fill="#000000" fill-opacity="1"><g transform="translate(1807.882843, 1744.647961)"><g><path d="M 27.164062 -53.113281 C 20.699219 -53.113281 15.246094 -49.175781 12.421875 -43.015625 L 12.320312 -43.015625 L 11.613281 -50.992188 L 5.046875 -50.992188 L 5.046875 0 L 12.722656 0 L 12.722656 -28.070312 C 12.722656 -39.179688 17.871094 -45.945312 26.050781 -45.945312 C 31.605469 -45.945312 35.339844 -42.105469 36.148438 -34.9375 L 42.8125 -37.160156 C 41.804688 -47.359375 35.847656 -53.113281 27.164062 -53.113281 Z M 27.164062 -53.113281 "/></g></g></g><g fill="#000000" fill-opacity="1"><g transform="translate(1852.710443, 1744.647961)"><g><path d="M 31.203125 2.019531 C 42.613281 2.019531 52.203125 -3.734375 55.535156 -11.914062 L 48.871094 -14.640625 C 46.042969 -9.085938 39.28125 -4.949219 31.300781 -4.949219 C 20.296875 -4.949219 12.117188 -12.320312 11.007812 -22.921875 L 53.921875 -22.921875 C 54.023438 -23.929688 54.023438 -25.042969 54.023438 -25.949219 C 53.820312 -41.703125 44.023438 -53.011719 29.082031 -53.011719 C 13.933594 -53.011719 3.027344 -41.703125 3.027344 -26.050781 C 3.027344 -9.792969 14.945312 2.019531 31.203125 2.019531 Z M 11.105469 -29.6875 C 12.519531 -39.378906 19.488281 -45.945312 28.980469 -45.945312 C 38.269531 -45.945312 44.832031 -40.085938 45.84375 -29.6875 Z M 11.105469 -29.6875 "/></g></g></g><g fill="#000000" fill-opacity="1"><g transform="translate(1910.663151, 1744.647961)"><g><path d="M 5.046875 0 L 12.722656 0 L 12.722656 -74.21875 L 5.046875 -74.21875 Z M 5.046875 0 "/></g></g></g><g fill="#000000" fill-opacity="1"><g transform="translate(84.906511, 1593.071546)"><g><path d="M 0.449219 0 L 47.210938 0 L 62.425781 -31.324219 L 151.921875 -31.324219 L 167.136719 0 L 213.898438 0 L 134.023438 -159.304688 L 81.890625 -159.304688 Z M 72.492188 -58.398438 L 107.171875 -130.21875 L 107.621094 -130.21875 L 141.851562 -58.398438 Z M 72.492188 -58.398438 "/></g></g></g><g fill="#000000" fill-opacity="1"><g transform="translate(299.475665, 1593.071546)"><g><path d="M 8.949219 0 L 49.894531 0 L 49.894531 -52.578125 C 49.894531 -76.742188 64.660156 -91.289062 89.722656 -91.289062 C 109.859375 -91.289062 121.941406 -80.101562 121.941406 -61.53125 L 121.941406 0 L 162.886719 0 L 162.886719 -52.578125 C 162.886719 -76.519531 177.652344 -91.289062 202.710938 -91.289062 C 222.847656 -91.289062 234.929688 -80.101562 234.929688 -61.53125 L 234.929688 0 L 275.875 0 L 275.875 -68.019531 C 275.875 -98 255.289062 -118.582031 220.386719 -118.582031 C 194.433594 -118.582031 170.714844 -106.949219 159.976562 -85.46875 L 159.753906 -85.46875 C 152.816406 -105.832031 134.691406 -118.582031 107.398438 -118.582031 C 80.996094 -118.582031 59.066406 -106.277344 48.777344 -86.589844 L 48.550781 -86.589844 L 43.40625 -114.554688 L 8.949219 -114.554688 Z M 8.949219 0 "/></g></g></g><g fill="#000000" fill-opacity="1"><g transform="translate(582.51007, 1593.071546)"><g><path d="M 63.09375 4.027344 C 95.984375 4.027344 123.058594 -7.832031 134.246094 -25.730469 L 134.46875 -25.730469 L 134.691406 -22.820312 C 136.484375 -6.265625 150.804688 4.027344 172.953125 4.027344 C 188.617188 4.027344 202.710938 -0.671875 209.648438 -8.054688 L 200.25 -27.296875 C 196.894531 -23.714844 191.523438 -21.253906 186.152344 -21.253906 C 178.996094 -21.253906 174.742188 -25.507812 174.742188 -31.996094 L 174.742188 -75.175781 C 174.742188 -102.921875 141.851562 -118.582031 95.761719 -118.582031 C 60.410156 -118.582031 24.835938 -107.84375 5.816406 -91.957031 L 18.125 -70.03125 C 36.46875 -84.351562 67.347656 -93.972656 95.984375 -93.972656 C 118.808594 -93.972656 134.691406 -87.484375 134.691406 -79.203125 C 134.691406 -76.074219 131.5625 -74.058594 126.636719 -73.613281 L 77.640625 -69.359375 C 30.207031 -65.109375 4.476562 -50.34375 4.476562 -28.191406 C 4.476562 -7.382812 25.953125 4.027344 63.09375 4.027344 Z M 76.074219 -21.703125 C 55.9375 -21.703125 45.417969 -26.179688 45.417969 -34.457031 C 45.417969 -42.511719 57.277344 -47.433594 80.546875 -49.222656 L 134.023438 -53.699219 L 134.023438 -50.789062 C 134.023438 -34.234375 110.082031 -21.703125 76.074219 -21.703125 Z M 76.074219 -21.703125 "/></g></g></g><g fill="#000000" fill-opacity="1"><g transform="translate(792.828108, 1593.071546)"><g><path d="M 96.65625 -118.582031 C 75.625 -118.582031 57.5 -107.171875 49 -88.601562 L 48.777344 -88.601562 L 43.40625 -114.554688 L 8.949219 -114.554688 L 8.949219 0 L 49.894531 0 L 49.894531 -50.566406 C 49.894531 -76.074219 61.53125 -92.40625 80.546875 -92.40625 C 93.75 -92.40625 103.144531 -81.667969 104.265625 -63.765625 L 141.40625 -71.597656 C 139.390625 -100.683594 121.941406 -118.582031 96.65625 -118.582031 Z M 96.65625 -118.582031 "/></g></g></g><g fill="#000000" fill-opacity="1"><g transform="translate(937.142042, 1593.071546)"><g><path d="M 63.09375 4.027344 C 95.984375 4.027344 123.058594 -7.832031 134.246094 -25.730469 L 134.46875 -25.730469 L 134.691406 -22.820312 C 136.484375 -6.265625 150.804688 4.027344 172.953125 4.027344 C 188.617188 4.027344 202.710938 -0.671875 209.648438 -8.054688 L 200.25 -27.296875 C 196.894531 -23.714844 191.523438 -21.253906 186.152344 -21.253906 C 178.996094 -21.253906 174.742188 -25.507812 174.742188 -31.996094 L 174.742188 -75.175781 C 174.742188 -102.921875 141.851562 -118.582031 95.761719 -118.582031 C 60.410156 -118.582031 24.835938 -107.84375 5.816406 -91.957031 L 18.125 -70.03125 C 36.46875 -84.351562 67.347656 -93.972656 95.984375 -93.972656 C 118.808594 -93.972656 134.691406 -87.484375 134.691406 -79.203125 C 134.691406 -76.074219 131.5625 -74.058594 126.636719 -73.613281 L 77.640625 -69.359375 C 30.207031 -65.109375 4.476562 -50.34375 4.476562 -28.191406 C 4.476562 -7.382812 25.953125 4.027344 63.09375 4.027344 Z M 76.074219 -21.703125 C 55.9375 -21.703125 45.417969 -26.179688 45.417969 -34.457031 C 45.417969 -42.511719 57.277344 -47.433594 80.546875 -49.222656 L 134.023438 -53.699219 L 134.023438 -50.789062 C 134.023438 -34.234375 110.082031 -21.703125 76.074219 -21.703125 Z M 76.074219 -21.703125 "/></g></g></g><g fill="#000000" fill-opacity="1"><g transform="translate(1147.460022, 1593.071546)"><g/></g></g><g fill="#000000" fill-opacity="1"><g transform="translate(1206.080549, 1593.071546)"><g><path d="M 103.816406 5.144531 C 158.1875 5.144531 193.984375 -16.558594 193.761719 -48.328125 C 193.761719 -75.625 172.058594 -89.945312 121.269531 -95.761719 L 87.929688 -100.011719 C 65.109375 -102.699219 55.265625 -107.621094 55.488281 -116.121094 C 55.488281 -127.757812 73.613281 -135.363281 98.894531 -135.589844 C 125.074219 -135.589844 150.804688 -126.414062 165.792969 -112.765625 L 181.230469 -138.496094 C 164.003906 -154.160156 132.902344 -164.449219 98.671875 -164.449219 C 46.984375 -164.449219 11.632812 -145.433594 11.410156 -112.988281 C 11.410156 -86.589844 31.324219 -73.164062 77.414062 -67.792969 L 110.976562 -63.320312 C 138.273438 -59.964844 149.90625 -53.921875 149.90625 -44.523438 C 149.90625 -32.890625 132.679688 -25.058594 106.054688 -25.058594 C 72.269531 -25.058594 37.8125 -38.261719 22.597656 -56.832031 L 4.476562 -30.429688 C 22.597656 -9.621094 62.648438 5.144531 103.816406 5.144531 Z M 103.816406 5.144531 "/></g></g></g><g fill="#000000" fill-opacity="1"><g transform="translate(1404.316433, 1593.071546)"><g><path d="M 91.957031 4.027344 C 118.582031 4.027344 138.273438 -4.921875 152.816406 -21.925781 L 140.734375 -44.300781 C 130.664062 -31.773438 118.359375 -24.613281 102.472656 -24.613281 C 85.246094 -24.613281 76.96875 -33.113281 77.191406 -48.550781 L 77.191406 -88.601562 L 148.789062 -88.601562 L 148.789062 -114.554688 L 77.191406 -114.554688 L 77.191406 -154.605469 L 36.023438 -147.222656 L 36.023438 -114.554688 L 1.117188 -114.554688 L 1.117188 -88.601562 L 36.246094 -88.601562 L 36.246094 -40.273438 C 36.46875 -12.53125 57.054688 4.027344 91.957031 4.027344 Z M 91.957031 4.027344 "/></g></g></g><g fill="#000000" fill-opacity="1"><g transform="translate(1560.041326, 1593.071546)"><g><path d="M 94.867188 4.027344 C 149.011719 4.027344 184.363281 -20.359375 184.363281 -57.277344 C 184.363281 -94.195312 149.011719 -118.582031 94.867188 -118.582031 C 40.945312 -118.582031 5.59375 -94.195312 5.59375 -57.277344 C 5.59375 -20.359375 40.945312 4.027344 94.867188 4.027344 Z M 94.867188 -21.703125 C 65.558594 -21.703125 46.539062 -35.800781 46.539062 -57.277344 C 46.539062 -78.757812 65.558594 -92.851562 94.867188 -92.851562 C 124.402344 -92.851562 143.417969 -78.757812 143.417969 -57.277344 C 143.417969 -35.800781 124.402344 -21.703125 94.867188 -21.703125 Z M 94.867188 -21.703125 "/></g></g></g><g fill="#000000" fill-opacity="1"><g transform="translate(1749.998748, 1593.071546)"><g><path d="M 96.65625 -118.582031 C 75.625 -118.582031 57.5 -107.171875 49 -88.601562 L 48.777344 -88.601562 L 43.40625 -114.554688 L 8.949219 -114.554688 L 8.949219 0 L 49.894531 0 L 49.894531 -50.566406 C 49.894531 -76.074219 61.53125 -92.40625 80.546875 -92.40625 C 93.75 -92.40625 103.144531 -81.667969 104.265625 -63.765625 L 141.40625 -71.597656 C 139.390625 -100.683594 121.941406 -118.582031 96.65625 -118.582031 Z M 96.65625 -118.582031 "/></g></g></g><g fill="#000000" fill-opacity="1"><g transform="translate(1894.312683, 1593.071546)"><g><path d="M 100.683594 4.027344 C 132.230469 4.027344 162.660156 -4.476562 178.324219 -16.558594 L 165.347656 -37.140625 C 153.265625 -28.191406 128.652344 -21.480469 103.816406 -21.480469 C 77.414062 -21.480469 54.144531 -30.429688 49.222656 -46.984375 L 175.636719 -46.984375 C 176.535156 -50.34375 176.757812 -54.816406 176.757812 -57.5 C 176.757812 -93.972656 142.746094 -118.582031 92.628906 -118.582031 C 41.390625 -118.582031 5.59375 -93.300781 5.59375 -57.726562 C 5.59375 -20.808594 44.523438 4.027344 100.683594 4.027344 Z M 48.328125 -66.898438 C 50.34375 -82.785156 68.6875 -94.195312 91.957031 -94.195312 C 115.453125 -94.195312 134.023438 -83.457031 135.363281 -66.898438 Z M 48.328125 -66.898438 "/></g></g></g></svg>