<svg xmlns="http://www.w3.org/2000/svg" xmlns:xlink="http://www.w3.org/1999/xlink" width="3456" zoomAndPan="magnify" viewBox="0 0 2592 2592.000001" height="3456" preserveAspectRatio="xMidYMid meet" version="1.0"><defs><g/><clipPath id="2847c7dacf"><path d="M 0.5 0 L 2591.5 0 L 2591.5 2591 L 0.5 2591 Z M 0.5 0 " clip-rule="nonzero"/></clipPath><clipPath id="da731b0c48"><path d="M 1930.585938 945.953125 L 2591.5 945.953125 L 2591.5 2064.078125 L 1930.585938 2064.078125 Z M 1930.585938 945.953125 " clip-rule="nonzero"/></clipPath><clipPath id="15357d2a55"><path d="M 2489.648438 945.953125 C 2180.886719 945.953125 1930.585938 1196.253906 1930.585938 1505.015625 C 1930.585938 1813.777344 2180.886719 2064.078125 2489.648438 2064.078125 C 2798.410156 2064.078125 3048.714844 1813.777344 3048.714844 1505.015625 C 3048.714844 1196.253906 2798.410156 945.953125 2489.648438 945.953125 Z M 2489.648438 945.953125 " clip-rule="nonzero"/></clipPath><clipPath id="e7d50a23f4"><path d="M 1005.933594 1982.003906 L 2006.734375 1982.003906 L 2006.734375 2591 L 1005.933594 2591 Z M 1005.933594 1982.003906 " clip-rule="nonzero"/></clipPath><clipPath id="9cb1a03efa"><path d="M 1506.335938 1982.003906 C 1229.972656 1982.003906 1005.933594 2206.039062 1005.933594 2482.402344 C 1005.933594 2758.765625 1229.972656 2982.800781 1506.335938 2982.800781 C 1782.699219 2982.800781 2006.734375 2758.765625 2006.734375 2482.402344 C 2006.734375 2206.039062 1782.699219 1982.003906 1506.335938 1982.003906 Z M 1506.335938 1982.003906 " clip-rule="nonzero"/></clipPath><clipPath id="7c54d3fd8f"><path d="M 1256.046875 1324.570312 L 1676.21875 1324.570312 L 1676.21875 1744.738281 L 1256.046875 1744.738281 Z M 1256.046875 1324.570312 " clip-rule="nonzero"/></clipPath><clipPath id="3f097db00d"><path d="M 1466.132812 1324.570312 C 1350.105469 1324.570312 1256.046875 1418.628906 1256.046875 1534.65625 C 1256.046875 1650.679688 1350.105469 1744.738281 1466.132812 1744.738281 C 1582.160156 1744.738281 1676.21875 1650.679688 1676.21875 1534.65625 C 1676.21875 1418.628906 1582.160156 1324.570312 1466.132812 1324.570312 Z M 1466.132812 1324.570312 " clip-rule="nonzero"/></clipPath></defs><g clip-path="url(#2847c7dacf)"><path fill="#ffffff" d="M 0.5 0 L 2591.5 0 L 2591.5 2591 L 0.5 2591 Z M 0.5 0 " fill-opacity="1" fill-rule="nonzero"/><path fill="#a8dadc" d="M 0.5 0 L 2591.5 0 L 2591.5 2591 L 0.5 2591 Z M 0.5 0 " fill-opacity="1" fill-rule="nonzero"/></g><g clip-path="url(#da731b0c48)"><g clip-path="url(#15357d2a55)"><path fill="#e63946" d="M 1930.585938 945.953125 L 3048.714844 945.953125 L 3048.714844 2064.078125 L 1930.585938 2064.078125 Z M 1930.585938 945.953125 " fill-opacity="1" fill-rule="nonzero"/></g></g><g clip-path="url(#e7d50a23f4)"><g clip-path="url(#9cb1a03efa)"><path fill="#f1faee" d="M 1005.933594 1982.003906 L 2006.734375 1982.003906 L 2006.734375 2982.800781 L 1005.933594 2982.800781 Z M 1005.933594 1982.003906 " fill-opacity="1" fill-rule="nonzero"/></g></g><g clip-path="url(#7c54d3fd8f)"><g clip-path="url(#3f097db00d)"><path fill="#1d3557" d="M 1256.046875 1324.570312 L 1676.21875 1324.570312 L 1676.21875 1744.738281 L 1256.046875 1744.738281 Z M 1256.046875 1324.570312 " fill-opacity="1" fill-rule="nonzero"/></g></g><g fill="#000000" fill-opacity="1"><g transform="translate(282.091156, 1048.659054)"><g><path d="M 4.800781 0 L 44.175781 0 L 44.175781 -5.921875 L 11.285156 -5.921875 L 11.285156 -26.25 L 40.171875 -26.25 L 40.171875 -32.011719 L 11.285156 -32.011719 L 11.285156 -50.496094 L 43.375 -50.496094 L 43.375 -56.417969 L 4.800781 -56.417969 Z M 4.800781 0 "/></g></g></g><g fill="#000000" fill-opacity="1"><g transform="translate(328.26074, 1048.659054)"><g><path d="M 0.800781 0 L 7.921875 0 L 19.605469 -17.125 L 31.128906 0 L 38.332031 0 L 23.449219 -20.96875 L 37.53125 -40.414062 L 30.488281 -40.414062 L 19.605469 -24.648438 L 8.644531 -40.414062 L 1.601562 -40.414062 L 15.683594 -20.96875 Z M 0.800781 0 "/></g></g></g><g fill="#000000" fill-opacity="1"><g transform="translate(367.388875, 1048.659054)"><g><path d="M 4 16.804688 L 10.082031 16.804688 L 10.082031 -6.722656 L 10.164062 -6.722656 C 13.683594 -1.519531 19.125 1.601562 25.847656 1.601562 C 37.613281 1.601562 46.335938 -7.601562 46.335938 -20.167969 C 46.335938 -32.8125 37.613281 -42.015625 25.769531 -42.015625 C 18.964844 -42.015625 13.445312 -38.8125 10.003906 -33.449219 L 9.921875 -33.449219 L 9.28125 -40.414062 L 4 -40.414062 Z M 25.046875 -4 C 16.324219 -4 9.921875 -11.042969 9.921875 -20.167969 C 9.921875 -29.371094 16.324219 -36.410156 25.046875 -36.410156 C 33.769531 -36.410156 40.171875 -29.53125 40.171875 -20.167969 C 40.171875 -11.042969 33.851562 -4 25.046875 -4 Z M 25.046875 -4 "/></g></g></g><g fill="#000000" fill-opacity="1"><g transform="translate(416.119006, 1048.659054)"><g><path d="M 4 0 L 10.082031 0 L 10.082031 -58.820312 L 4 -58.820312 Z M 4 0 "/></g></g></g><g fill="#000000" fill-opacity="1"><g transform="translate(430.201937, 1048.659054)"><g><path d="M 23.929688 1.601562 C 36.972656 1.601562 45.535156 -7.042969 45.535156 -20.167969 C 45.535156 -33.371094 36.972656 -42.015625 23.929688 -42.015625 C 10.964844 -42.015625 2.402344 -33.371094 2.402344 -20.167969 C 2.402344 -7.042969 10.964844 1.601562 23.929688 1.601562 Z M 23.929688 -3.921875 C 14.566406 -3.921875 8.484375 -10.324219 8.484375 -20.167969 C 8.484375 -30.011719 14.566406 -36.410156 23.929688 -36.410156 C 33.292969 -36.410156 39.375 -30.011719 39.375 -20.167969 C 39.375 -10.324219 33.292969 -3.921875 23.929688 -3.921875 Z M 23.929688 -3.921875 "/></g></g></g><g fill="#000000" fill-opacity="1"><g transform="translate(478.131877, 1048.659054)"><g><path d="M 21.527344 -42.09375 C 16.40625 -42.09375 12.085938 -38.972656 9.84375 -34.089844 L 9.761719 -34.089844 L 9.203125 -40.414062 L 4 -40.414062 L 4 0 L 10.082031 0 L 10.082031 -22.246094 C 10.082031 -31.050781 14.164062 -36.410156 20.648438 -36.410156 C 25.046875 -36.410156 28.007812 -33.371094 28.648438 -27.6875 L 33.929688 -29.449219 C 33.132812 -37.53125 28.410156 -42.09375 21.527344 -42.09375 Z M 21.527344 -42.09375 "/></g></g></g><g fill="#000000" fill-opacity="1"><g transform="translate(513.659253, 1048.659054)"><g><path d="M 24.726562 1.601562 C 33.769531 1.601562 41.375 -2.960938 44.015625 -9.441406 L 38.734375 -11.605469 C 36.492188 -7.203125 31.128906 -3.921875 24.808594 -3.921875 C 16.085938 -3.921875 9.601562 -9.761719 8.722656 -18.167969 L 42.734375 -18.167969 C 42.8125 -18.964844 42.8125 -19.847656 42.8125 -20.566406 C 42.652344 -33.050781 34.890625 -42.015625 23.046875 -42.015625 C 11.042969 -42.015625 2.402344 -33.050781 2.402344 -20.648438 C 2.402344 -7.761719 11.84375 1.601562 24.726562 1.601562 Z M 8.804688 -23.527344 C 9.921875 -31.210938 15.445312 -36.410156 22.96875 -36.410156 C 30.328125 -36.410156 35.53125 -31.769531 36.332031 -23.527344 Z M 8.804688 -23.527344 "/></g></g></g><g fill="#000000" fill-opacity="1"><g transform="translate(559.588789, 1048.659054)"><g/></g></g><g fill="#000000" fill-opacity="1"><g transform="translate(581.3533, 1048.659054)"><g><path d="M 19.445312 1.679688 C 30.011719 1.679688 36.09375 -4.640625 36.09375 -15.683594 L 36.09375 -56.417969 L 29.371094 -56.417969 L 29.371094 -16.324219 C 29.371094 -8.5625 25.6875 -4.160156 19.207031 -4.160156 C 12.722656 -4.160156 8.402344 -8.242188 7.441406 -15.203125 L 1.601562 -12.722656 C 3.519531 -3.601562 10.003906 1.679688 19.445312 1.679688 Z M 19.445312 1.679688 "/></g></g></g><g fill="#000000" fill-opacity="1"><g transform="translate(621.441628, 1048.659054)"><g><path d="M 24.726562 1.601562 C 33.769531 1.601562 41.375 -2.960938 44.015625 -9.441406 L 38.734375 -11.605469 C 36.492188 -7.203125 31.128906 -3.921875 24.808594 -3.921875 C 16.085938 -3.921875 9.601562 -9.761719 8.722656 -18.167969 L 42.734375 -18.167969 C 42.8125 -18.964844 42.8125 -19.847656 42.8125 -20.566406 C 42.652344 -33.050781 34.890625 -42.015625 23.046875 -42.015625 C 11.042969 -42.015625 2.402344 -33.050781 2.402344 -20.648438 C 2.402344 -7.761719 11.84375 1.601562 24.726562 1.601562 Z M 8.804688 -23.527344 C 9.921875 -31.210938 15.445312 -36.410156 22.96875 -36.410156 C 30.328125 -36.410156 35.53125 -31.769531 36.332031 -23.527344 Z M 8.804688 -23.527344 "/></g></g></g><g fill="#000000" fill-opacity="1"><g transform="translate(667.371163, 1048.659054)"><g><path d="M 14.246094 0 L 22.167969 0 L 32.410156 -34.011719 L 32.570312 -34.011719 L 43.132812 0 L 50.976562 0 L 64.261719 -40.414062 L 57.9375 -40.414062 L 47.214844 -5.921875 L 47.136719 -5.921875 L 36.332031 -40.414062 L 28.730469 -40.414062 L 18.085938 -6.003906 L 18.007812 -6.003906 L 7.203125 -40.414062 L 0.800781 -40.414062 Z M 14.246094 0 "/></g></g></g><g fill="#000000" fill-opacity="1"><g transform="translate(732.424678, 1048.659054)"><g><path d="M 24.726562 1.601562 C 33.769531 1.601562 41.375 -2.960938 44.015625 -9.441406 L 38.734375 -11.605469 C 36.492188 -7.203125 31.128906 -3.921875 24.808594 -3.921875 C 16.085938 -3.921875 9.601562 -9.761719 8.722656 -18.167969 L 42.734375 -18.167969 C 42.8125 -18.964844 42.8125 -19.847656 42.8125 -20.566406 C 42.652344 -33.050781 34.890625 -42.015625 23.046875 -42.015625 C 11.042969 -42.015625 2.402344 -33.050781 2.402344 -20.648438 C 2.402344 -7.761719 11.84375 1.601562 24.726562 1.601562 Z M 8.804688 -23.527344 C 9.921875 -31.210938 15.445312 -36.410156 22.96875 -36.410156 C 30.328125 -36.410156 35.53125 -31.769531 36.332031 -23.527344 Z M 8.804688 -23.527344 "/></g></g></g><g fill="#000000" fill-opacity="1"><g transform="translate(778.354214, 1048.659054)"><g><path d="M 4 0 L 10.082031 0 L 10.082031 -58.820312 L 4 -58.820312 Z M 4 0 "/></g></g></g><g fill="#000000" fill-opacity="1"><g transform="translate(792.437115, 1048.659054)"><g><path d="M 21.527344 -42.09375 C 16.40625 -42.09375 12.085938 -38.972656 9.84375 -34.089844 L 9.761719 -34.089844 L 9.203125 -40.414062 L 4 -40.414062 L 4 0 L 10.082031 0 L 10.082031 -22.246094 C 10.082031 -31.050781 14.164062 -36.410156 20.648438 -36.410156 C 25.046875 -36.410156 28.007812 -33.371094 28.648438 -27.6875 L 33.929688 -29.449219 C 33.132812 -37.53125 28.410156 -42.09375 21.527344 -42.09375 Z M 21.527344 -42.09375 "/></g></g></g><g fill="#000000" fill-opacity="1"><g transform="translate(827.964523, 1048.659054)"><g><path d="M 19.527344 18.40625 C 32.171875 18.40625 40.171875 11.285156 40.171875 -0.800781 L 40.09375 -40.414062 L 34.011719 -40.414062 L 34.011719 -15.523438 C 34.011719 -7.84375 27.929688 -2.320312 20.886719 -2.320312 C 13.84375 -2.320312 9.601562 -7.441406 9.601562 -14.644531 L 9.601562 -40.414062 L 3.519531 -40.414062 L 3.519531 -14.644531 C 3.519531 -4.320312 10.082031 3.199219 20.167969 3.199219 C 25.769531 3.199219 31.210938 0.398438 34.011719 -4.320312 L 34.089844 -4.320312 L 34.089844 -0.800781 C 34.089844 7.761719 28.488281 12.882812 19.367188 12.882812 C 12.164062 12.882812 6.722656 9.441406 4.160156 4.320312 L -1.039062 7.84375 C 2.082031 14.246094 9.523438 18.40625 19.527344 18.40625 Z M 19.527344 18.40625 "/></g></g></g><g fill="#000000" fill-opacity="1"><g transform="translate(872.133673, 1048.659054)"><g><path d="M 3.199219 10.5625 C 9.601562 12.164062 14.246094 7.683594 14.246094 -0.078125 C 14.246094 -5.363281 12.164062 -7.761719 9.28125 -7.761719 C 6.800781 -7.761719 4.960938 -6.003906 4.960938 -3.441406 C 4.882812 -0.558594 7.683594 1.761719 11.203125 0.480469 C 11.445312 5.28125 8.082031 8.964844 4.082031 7.761719 Z M 3.199219 10.5625 "/></g></g></g><g fill="#000000" fill-opacity="1"><g transform="translate(889.577312, 1048.659054)"><g/></g></g><g fill="#000000" fill-opacity="1"><g transform="translate(911.341823, 1048.659054)"><g><path d="M 4.800781 0 L 44.175781 0 L 44.175781 -5.921875 L 11.285156 -5.921875 L 11.285156 -26.25 L 40.171875 -26.25 L 40.171875 -32.011719 L 11.285156 -32.011719 L 11.285156 -50.496094 L 43.375 -50.496094 L 43.375 -56.417969 L 4.800781 -56.417969 Z M 4.800781 0 "/></g></g></g><g fill="#000000" fill-opacity="1"><g transform="translate(957.511438, 1048.659054)"><g><path d="M 4 0 L 10.082031 0 L 10.082031 -58.820312 L 4 -58.820312 Z M 4 0 "/></g></g></g><g fill="#000000" fill-opacity="1"><g transform="translate(971.5944, 1048.659054)"><g><path d="M 24.726562 1.601562 C 33.769531 1.601562 41.375 -2.960938 44.015625 -9.441406 L 38.734375 -11.605469 C 36.492188 -7.203125 31.128906 -3.921875 24.808594 -3.921875 C 16.085938 -3.921875 9.601562 -9.761719 8.722656 -18.167969 L 42.734375 -18.167969 C 42.8125 -18.964844 42.8125 -19.847656 42.8125 -20.566406 C 42.652344 -33.050781 34.890625 -42.015625 23.046875 -42.015625 C 11.042969 -42.015625 2.402344 -33.050781 2.402344 -20.648438 C 2.402344 -7.761719 11.84375 1.601562 24.726562 1.601562 Z M 8.804688 -23.527344 C 9.921875 -31.210938 15.445312 -36.410156 22.96875 -36.410156 C 30.328125 -36.410156 35.53125 -31.769531 36.332031 -23.527344 Z M 8.804688 -23.527344 "/></g></g></g><g fill="#000000" fill-opacity="1"><g transform="translate(1017.523906, 1048.659054)"><g><path d="M 23.769531 1.601562 C 34.171875 1.601562 42.734375 -5.121094 44.253906 -14.40625 L 38.332031 -15.605469 C 37.210938 -8.644531 31.128906 -3.921875 23.769531 -3.921875 C 14.964844 -3.921875 8.484375 -10.484375 8.484375 -20.167969 C 8.484375 -29.851562 14.484375 -36.410156 22.566406 -36.410156 C 28.488281 -36.410156 33.609375 -32.652344 35.210938 -26.808594 L 41.132812 -28.167969 C 39.132812 -36.332031 31.691406 -42.015625 22.566406 -42.015625 C 10.722656 -42.015625 2.402344 -32.972656 2.402344 -20.167969 C 2.402344 -7.441406 11.203125 1.601562 23.769531 1.601562 Z M 23.769531 1.601562 "/></g></g></g><g fill="#000000" fill-opacity="1"><g transform="translate(1063.373457, 1048.659054)"><g><path d="M 21.605469 1.601562 C 28.488281 1.601562 34.652344 -2.722656 35.773438 -9.761719 L 30.808594 -11.84375 C 30.011719 -6.640625 26.25 -3.679688 22.167969 -3.679688 C 17.765625 -3.679688 14.964844 -6.960938 14.964844 -11.523438 L 14.964844 -35.371094 L 33.050781 -35.371094 L 33.050781 -40.414062 L 14.964844 -40.414062 L 14.964844 -53.859375 L 8.882812 -52.417969 L 8.882812 -40.414062 L 0 -40.414062 L 0 -35.371094 L 8.882812 -35.371094 L 8.882812 -10.882812 C 8.882812 -3.519531 14.003906 1.601562 21.605469 1.601562 Z M 21.605469 1.601562 "/></g></g></g><g fill="#000000" fill-opacity="1"><g transform="translate(1099.460916, 1048.659054)"><g><path d="M 21.527344 -42.09375 C 16.40625 -42.09375 12.085938 -38.972656 9.84375 -34.089844 L 9.761719 -34.089844 L 9.203125 -40.414062 L 4 -40.414062 L 4 0 L 10.082031 0 L 10.082031 -22.246094 C 10.082031 -31.050781 14.164062 -36.410156 20.648438 -36.410156 C 25.046875 -36.410156 28.007812 -33.371094 28.648438 -27.6875 L 33.929688 -29.449219 C 33.132812 -37.53125 28.410156 -42.09375 21.527344 -42.09375 Z M 21.527344 -42.09375 "/></g></g></g><g fill="#000000" fill-opacity="1"><g transform="translate(1134.988324, 1048.659054)"><g><path d="M 23.929688 1.601562 C 36.972656 1.601562 45.535156 -7.042969 45.535156 -20.167969 C 45.535156 -33.371094 36.972656 -42.015625 23.929688 -42.015625 C 10.964844 -42.015625 2.402344 -33.371094 2.402344 -20.167969 C 2.402344 -7.042969 10.964844 1.601562 23.929688 1.601562 Z M 23.929688 -3.921875 C 14.566406 -3.921875 8.484375 -10.324219 8.484375 -20.167969 C 8.484375 -30.011719 14.566406 -36.410156 23.929688 -36.410156 C 33.292969 -36.410156 39.375 -30.011719 39.375 -20.167969 C 39.375 -10.324219 33.292969 -3.921875 23.929688 -3.921875 Z M 23.929688 -3.921875 "/></g></g></g><g fill="#000000" fill-opacity="1"><g transform="translate(1182.918294, 1048.659054)"><g><path d="M 25.6875 -42.015625 C 18.644531 -42.015625 13.605469 -39.292969 10.164062 -34.410156 L 10.082031 -34.410156 L 9.523438 -40.414062 L 4 -40.414062 L 4 0 L 10.082031 0 L 10.082031 -22.808594 C 10.082031 -31.050781 15.925781 -36.730469 24.007812 -36.730469 C 30.410156 -36.730469 34.492188 -32.332031 34.492188 -25.449219 L 34.492188 0 L 40.652344 0 L 40.652344 -26.089844 C 40.652344 -36.09375 34.972656 -42.015625 25.6875 -42.015625 Z M 25.6875 -42.015625 "/></g></g></g><g fill="#000000" fill-opacity="1"><g transform="translate(1227.167522, 1048.659054)"><g><path d="M 7.683594 -48.257812 C 10.324219 -48.257812 12.242188 -50.015625 12.242188 -52.738281 C 12.242188 -55.378906 10.324219 -57.140625 7.683594 -57.140625 C 4.960938 -57.140625 3.199219 -55.378906 3.199219 -52.738281 C 3.199219 -50.015625 4.960938 -48.257812 7.683594 -48.257812 Z M 4.5625 0 L 10.644531 0 L 10.644531 -40.414062 L 4.5625 -40.414062 Z M 4.5625 0 "/></g></g></g><g fill="#000000" fill-opacity="1"><g transform="translate(1242.610697, 1048.659054)"><g><path d="M 23.769531 1.601562 C 34.171875 1.601562 42.734375 -5.121094 44.253906 -14.40625 L 38.332031 -15.605469 C 37.210938 -8.644531 31.128906 -3.921875 23.769531 -3.921875 C 14.964844 -3.921875 8.484375 -10.484375 8.484375 -20.167969 C 8.484375 -29.851562 14.484375 -36.410156 22.566406 -36.410156 C 28.488281 -36.410156 33.609375 -32.652344 35.210938 -26.808594 L 41.132812 -28.167969 C 39.132812 -36.332031 31.691406 -42.015625 22.566406 -42.015625 C 10.722656 -42.015625 2.402344 -32.972656 2.402344 -20.167969 C 2.402344 -7.441406 11.203125 1.601562 23.769531 1.601562 Z M 23.769531 1.601562 "/></g></g></g><g fill="#000000" fill-opacity="1"><g transform="translate(1288.460248, 1048.659054)"><g><path d="M 20.726562 1.601562 C 30.488281 1.601562 37.851562 -4 37.851562 -11.605469 C 37.851562 -17.605469 33.769531 -20.96875 24.246094 -22.96875 L 17.6875 -24.246094 C 12.085938 -25.449219 9.683594 -27.128906 9.683594 -30.089844 C 9.761719 -33.53125 13.523438 -36.652344 18.644531 -36.652344 C 24.40625 -36.652344 28.648438 -33.53125 29.210938 -29.289062 L 35.050781 -30.890625 C 33.53125 -37.453125 27.210938 -42.015625 18.726562 -42.015625 C 10.082031 -42.015625 3.839844 -36.8125 3.761719 -29.769531 C 3.761719 -23.847656 7.363281 -20.488281 15.765625 -18.726562 L 22.167969 -17.445312 C 28.96875 -16.085938 31.929688 -14.164062 31.929688 -11.042969 C 31.929688 -6.882812 27.050781 -3.921875 20.726562 -3.921875 C 13.523438 -3.921875 8.082031 -7.84375 7.601562 -13.445312 L 1.601562 -12.242188 C 2.320312 -3.601562 10.644531 1.601562 20.726562 1.601562 Z M 20.726562 1.601562 "/></g></g></g><g fill="#000000" fill-opacity="1"><g transform="translate(1327.908506, 1048.659054)"><g/></g></g><g fill="#000000" fill-opacity="1"><g transform="translate(1349.673017, 1048.659054)"><g><path d="M 44.253906 -10.882812 C 46.894531 -14.324219 49.136719 -18.40625 51.058594 -22.96875 L 46.335938 -27.210938 C 44.816406 -22.40625 42.652344 -18.085938 40.011719 -14.644531 L 25.128906 -28.25 C 35.53125 -32.25 39.933594 -36.972656 39.933594 -43.855469 C 39.933594 -52.816406 33.050781 -57.777344 24.246094 -57.777344 C 15.203125 -57.777344 8.5625 -51.695312 8.5625 -43.375 C 8.484375 -38.171875 11.285156 -33.691406 14.40625 -30.25 C 6.003906 -26.410156 2.402344 -21.527344 2.402344 -14.085938 C 2.402344 -4.722656 10.164062 2 21.046875 2 C 28.089844 2 34.652344 -1.121094 40.09375 -6.402344 L 47.214844 0 L 56.179688 0 Z M 24.246094 -51.855469 C 29.371094 -51.855469 33.609375 -48.175781 33.53125 -43.292969 C 33.53125 -38.734375 29.769531 -35.292969 20.886719 -32.089844 C 17.125 -35.53125 15.046875 -39.292969 14.964844 -43.132812 C 14.964844 -48.335938 18.964844 -51.855469 24.246094 -51.855469 Z M 21.847656 -3.921875 C 14.40625 -3.921875 8.964844 -8.242188 8.964844 -14.246094 C 8.964844 -19.925781 11.84375 -23.449219 18.644531 -26.089844 L 35.851562 -10.242188 C 31.929688 -6.242188 27.289062 -3.921875 21.847656 -3.921875 Z M 21.847656 -3.921875 "/></g></g></g><g fill="#000000" fill-opacity="1"><g transform="translate(1405.84471, 1048.659054)"><g/></g></g><g fill="#000000" fill-opacity="1"><g transform="translate(1427.609221, 1048.659054)"><g><path d="M 0.800781 0 L 7.921875 0 L 13.125 -13.523438 L 40.332031 -13.523438 L 45.453125 0 L 52.496094 0 L 30.730469 -56.417969 L 22.726562 -56.417969 Z M 15.046875 -19.445312 L 26.648438 -49.855469 L 26.808594 -49.855469 L 38.332031 -19.445312 Z M 15.046875 -19.445312 "/></g></g></g><g fill="#000000" fill-opacity="1"><g transform="translate(1480.900334, 1048.659054)"><g><path d="M 4 16.804688 L 10.082031 16.804688 L 10.082031 -6.722656 L 10.164062 -6.722656 C 13.683594 -1.519531 19.125 1.601562 25.847656 1.601562 C 37.613281 1.601562 46.335938 -7.601562 46.335938 -20.167969 C 46.335938 -32.8125 37.613281 -42.015625 25.769531 -42.015625 C 18.964844 -42.015625 13.445312 -38.8125 10.003906 -33.449219 L 9.921875 -33.449219 L 9.28125 -40.414062 L 4 -40.414062 Z M 25.046875 -4 C 16.324219 -4 9.921875 -11.042969 9.921875 -20.167969 C 9.921875 -29.371094 16.324219 -36.410156 25.046875 -36.410156 C 33.769531 -36.410156 40.171875 -29.53125 40.171875 -20.167969 C 40.171875 -11.042969 33.851562 -4 25.046875 -4 Z M 25.046875 -4 "/></g></g></g><g fill="#000000" fill-opacity="1"><g transform="translate(1529.630465, 1048.659054)"><g><path d="M 4 16.804688 L 10.082031 16.804688 L 10.082031 -6.722656 L 10.164062 -6.722656 C 13.683594 -1.519531 19.125 1.601562 25.847656 1.601562 C 37.613281 1.601562 46.335938 -7.601562 46.335938 -20.167969 C 46.335938 -32.8125 37.613281 -42.015625 25.769531 -42.015625 C 18.964844 -42.015625 13.445312 -38.8125 10.003906 -33.449219 L 9.921875 -33.449219 L 9.28125 -40.414062 L 4 -40.414062 Z M 25.046875 -4 C 16.324219 -4 9.921875 -11.042969 9.921875 -20.167969 C 9.921875 -29.371094 16.324219 -36.410156 25.046875 -36.410156 C 33.769531 -36.410156 40.171875 -29.53125 40.171875 -20.167969 C 40.171875 -11.042969 33.851562 -4 25.046875 -4 Z M 25.046875 -4 "/></g></g></g><g fill="#000000" fill-opacity="1"><g transform="translate(1578.360596, 1048.659054)"><g><path d="M 17.207031 1.601562 C 24.40625 1.601562 30.011719 -1.601562 32.890625 -6.722656 L 32.972656 -6.722656 L 33.050781 -4.882812 C 33.292969 -1.199219 35.773438 1.601562 39.691406 1.601562 C 42.8125 1.601562 46.175781 -0.078125 47.855469 -2.5625 L 44.574219 -6.402344 C 43.695312 -4.960938 42.414062 -4 41.292969 -4 C 40.011719 -4 39.132812 -5.121094 39.132812 -6.722656 L 39.132812 -27.210938 C 39.132812 -36.253906 31.851562 -42.015625 21.527344 -42.015625 C 11.042969 -42.015625 3.199219 -35.773438 2.480469 -29.128906 L 8.003906 -26.808594 C 8.324219 -31.609375 13.683594 -36.492188 21.285156 -36.492188 C 28.328125 -36.492188 33.132812 -33.210938 33.132812 -28.167969 C 33.132812 -26.410156 31.851562 -25.289062 29.851562 -25.046875 L 19.847656 -23.847656 C 6.722656 -22.246094 1.601562 -17.046875 1.601562 -10.5625 C 1.601562 -3.359375 8.003906 1.601562 17.207031 1.601562 Z M 18.246094 -3.921875 C 12.085938 -3.921875 7.683594 -6.5625 7.683594 -10.644531 C 7.683594 -14.324219 10.722656 -17.445312 20.488281 -18.644531 L 32.972656 -20.167969 L 32.972656 -17.285156 C 32.972656 -9.441406 26.730469 -3.921875 18.246094 -3.921875 Z M 18.246094 -3.921875 "/></g></g></g><g fill="#000000" fill-opacity="1"><g transform="translate(1626.210489, 1048.659054)"><g><path d="M 21.527344 -42.09375 C 16.40625 -42.09375 12.085938 -38.972656 9.84375 -34.089844 L 9.761719 -34.089844 L 9.203125 -40.414062 L 4 -40.414062 L 4 0 L 10.082031 0 L 10.082031 -22.246094 C 10.082031 -31.050781 14.164062 -36.410156 20.648438 -36.410156 C 25.046875 -36.410156 28.007812 -33.371094 28.648438 -27.6875 L 33.929688 -29.449219 C 33.132812 -37.53125 28.410156 -42.09375 21.527344 -42.09375 Z M 21.527344 -42.09375 "/></g></g></g><g fill="#000000" fill-opacity="1"><g transform="translate(1661.737898, 1048.659054)"><g><path d="M 24.726562 1.601562 C 33.769531 1.601562 41.375 -2.960938 44.015625 -9.441406 L 38.734375 -11.605469 C 36.492188 -7.203125 31.128906 -3.921875 24.808594 -3.921875 C 16.085938 -3.921875 9.601562 -9.761719 8.722656 -18.167969 L 42.734375 -18.167969 C 42.8125 -18.964844 42.8125 -19.847656 42.8125 -20.566406 C 42.652344 -33.050781 34.890625 -42.015625 23.046875 -42.015625 C 11.042969 -42.015625 2.402344 -33.050781 2.402344 -20.648438 C 2.402344 -7.761719 11.84375 1.601562 24.726562 1.601562 Z M 8.804688 -23.527344 C 9.921875 -31.210938 15.445312 -36.410156 22.96875 -36.410156 C 30.328125 -36.410156 35.53125 -31.769531 36.332031 -23.527344 Z M 8.804688 -23.527344 "/></g></g></g><g fill="#000000" fill-opacity="1"><g transform="translate(1707.667404, 1048.659054)"><g><path d="M 4 0 L 10.082031 0 L 10.082031 -58.820312 L 4 -58.820312 Z M 4 0 "/></g></g></g><g fill="#000000" fill-opacity="1"><g transform="translate(259.599835, 921.673449)"><g><path d="M 0.351562 0 L 37.25 0 L 49.253906 -24.714844 L 119.867188 -24.714844 L 131.871094 0 L 168.765625 0 L 105.742188 -125.691406 L 64.609375 -125.691406 Z M 57.195312 -46.074219 L 84.558594 -102.742188 L 84.910156 -102.742188 L 111.921875 -46.074219 Z M 57.195312 -46.074219 "/></g></g></g><g fill="#000000" fill-opacity="1"><g transform="translate(428.893788, 921.673449)"><g><path d="M 7.0625 0 L 39.367188 0 L 39.367188 -41.484375 C 39.367188 -60.550781 51.019531 -72.023438 70.789062 -72.023438 C 86.675781 -72.023438 96.210938 -63.199219 96.210938 -48.546875 L 96.210938 0 L 128.515625 0 L 128.515625 -41.484375 C 128.515625 -60.375 140.167969 -72.023438 159.9375 -72.023438 C 175.824219 -72.023438 185.359375 -63.199219 185.359375 -48.546875 L 185.359375 0 L 217.664062 0 L 217.664062 -53.664062 C 217.664062 -77.320312 201.421875 -93.5625 173.882812 -93.5625 C 153.40625 -93.5625 134.695312 -84.382812 126.21875 -67.433594 L 126.042969 -67.433594 C 120.570312 -83.5 106.273438 -93.5625 84.734375 -93.5625 C 63.90625 -93.5625 46.605469 -83.851562 38.484375 -68.316406 L 38.308594 -68.316406 L 34.246094 -90.382812 L 7.0625 -90.382812 Z M 7.0625 0 "/></g></g></g><g fill="#000000" fill-opacity="1"><g transform="translate(652.20647, 921.673449)"><g><path d="M 49.78125 3.175781 C 75.730469 3.175781 97.09375 -6.179688 105.917969 -20.300781 L 106.097656 -20.300781 L 106.273438 -18.007812 C 107.683594 -4.941406 118.984375 3.175781 136.460938 3.175781 C 148.816406 3.175781 159.9375 -0.53125 165.410156 -6.355469 L 157.996094 -21.535156 C 155.347656 -18.710938 151.113281 -16.769531 146.875 -16.769531 C 141.226562 -16.769531 137.871094 -20.125 137.871094 -25.242188 L 137.871094 -59.316406 C 137.871094 -81.203125 111.921875 -93.5625 75.554688 -93.5625 C 47.664062 -93.5625 19.59375 -85.089844 4.589844 -72.554688 L 14.300781 -55.253906 C 28.773438 -66.550781 53.136719 -74.144531 75.730469 -74.144531 C 93.738281 -74.144531 106.273438 -69.023438 106.273438 -62.492188 C 106.273438 -60.019531 103.800781 -58.433594 99.917969 -58.078125 L 61.257812 -54.726562 C 23.832031 -51.371094 3.53125 -39.71875 3.53125 -22.242188 C 3.53125 -5.824219 20.476562 3.175781 49.78125 3.175781 Z M 60.019531 -17.125 C 44.132812 -17.125 35.835938 -20.652344 35.835938 -27.1875 C 35.835938 -33.542969 45.191406 -37.425781 63.550781 -38.835938 L 105.742188 -42.367188 L 105.742188 -40.074219 C 105.742188 -27.007812 86.855469 -17.125 60.019531 -17.125 Z M 60.019531 -17.125 "/></g></g></g><g fill="#000000" fill-opacity="1"><g transform="translate(818.146314, 921.673449)"><g><path d="M 76.261719 -93.5625 C 59.667969 -93.5625 45.367188 -84.558594 38.660156 -69.90625 L 38.484375 -69.90625 L 34.246094 -90.382812 L 7.0625 -90.382812 L 7.0625 0 L 39.367188 0 L 39.367188 -39.894531 C 39.367188 -60.019531 48.546875 -72.90625 63.550781 -72.90625 C 73.96875 -72.90625 81.382812 -64.433594 82.265625 -50.3125 L 111.566406 -56.492188 C 109.980469 -79.4375 96.210938 -93.5625 76.261719 -93.5625 Z M 76.261719 -93.5625 "/></g></g></g><g fill="#000000" fill-opacity="1"><g transform="translate(932.009263, 921.673449)"><g><path d="M 49.78125 3.175781 C 75.730469 3.175781 97.09375 -6.179688 105.917969 -20.300781 L 106.097656 -20.300781 L 106.273438 -18.007812 C 107.683594 -4.941406 118.984375 3.175781 136.460938 3.175781 C 148.816406 3.175781 159.9375 -0.53125 165.410156 -6.355469 L 157.996094 -21.535156 C 155.347656 -18.710938 151.113281 -16.769531 146.875 -16.769531 C 141.226562 -16.769531 137.871094 -20.125 137.871094 -25.242188 L 137.871094 -59.316406 C 137.871094 -81.203125 111.921875 -93.5625 75.554688 -93.5625 C 47.664062 -93.5625 19.59375 -85.089844 4.589844 -72.554688 L 14.300781 -55.253906 C 28.773438 -66.550781 53.136719 -74.144531 75.730469 -74.144531 C 93.738281 -74.144531 106.273438 -69.023438 106.273438 -62.492188 C 106.273438 -60.019531 103.800781 -58.433594 99.917969 -58.078125 L 61.257812 -54.726562 C 23.832031 -51.371094 3.53125 -39.71875 3.53125 -22.242188 C 3.53125 -5.824219 20.476562 3.175781 49.78125 3.175781 Z M 60.019531 -17.125 C 44.132812 -17.125 35.835938 -20.652344 35.835938 -27.1875 C 35.835938 -33.542969 45.191406 -37.425781 63.550781 -38.835938 L 105.742188 -42.367188 L 105.742188 -40.074219 C 105.742188 -27.007812 86.855469 -17.125 60.019531 -17.125 Z M 60.019531 -17.125 "/></g></g></g><g fill="#000000" fill-opacity="1"><g transform="translate(1097.949062, 921.673449)"><g/></g></g><g fill="#000000" fill-opacity="1"><g transform="translate(1144.200354, 921.673449)"><g><path d="M 81.910156 4.058594 C 124.808594 4.058594 153.054688 -13.0625 152.875 -38.132812 C 152.875 -59.667969 135.753906 -70.964844 95.679688 -75.554688 L 69.378906 -78.910156 C 51.371094 -81.027344 43.601562 -84.910156 43.78125 -91.621094 C 43.78125 -100.800781 58.078125 -106.800781 78.027344 -106.976562 C 98.679688 -106.976562 118.984375 -99.742188 130.808594 -88.972656 L 142.992188 -109.273438 C 129.398438 -121.628906 104.859375 -129.75 77.851562 -129.75 C 37.070312 -129.75 9.179688 -114.746094 9.003906 -89.148438 C 9.003906 -68.316406 24.714844 -57.726562 61.082031 -53.488281 L 87.558594 -49.957031 C 109.097656 -47.3125 118.277344 -42.542969 118.277344 -35.128906 C 118.277344 -25.949219 104.683594 -19.773438 83.675781 -19.773438 C 57.019531 -19.773438 29.832031 -30.1875 17.828125 -44.839844 L 3.53125 -24.007812 C 17.828125 -7.589844 49.429688 4.058594 81.910156 4.058594 Z M 81.910156 4.058594 "/></g></g></g><g fill="#000000" fill-opacity="1"><g transform="translate(1300.607442, 921.673449)"><g><path d="M 72.554688 3.175781 C 93.5625 3.175781 109.097656 -3.882812 120.570312 -17.300781 L 111.039062 -34.953125 C 103.09375 -25.066406 93.386719 -19.417969 80.851562 -19.417969 C 67.257812 -19.417969 60.726562 -26.125 60.902344 -38.308594 L 60.902344 -69.90625 L 117.394531 -69.90625 L 117.394531 -90.382812 L 60.902344 -90.382812 L 60.902344 -121.984375 L 28.421875 -116.15625 L 28.421875 -90.382812 L 0.882812 -90.382812 L 0.882812 -69.90625 L 28.597656 -69.90625 L 28.597656 -31.777344 C 28.773438 -9.886719 45.015625 3.175781 72.554688 3.175781 Z M 72.554688 3.175781 "/></g></g></g><g fill="#000000" fill-opacity="1"><g transform="translate(1423.473577, 921.673449)"><g><path d="M 74.847656 3.175781 C 117.570312 3.175781 145.460938 -16.0625 145.460938 -45.191406 C 145.460938 -74.320312 117.570312 -93.5625 74.847656 -93.5625 C 32.304688 -93.5625 4.414062 -74.320312 4.414062 -45.191406 C 4.414062 -16.0625 32.304688 3.175781 74.847656 3.175781 Z M 74.847656 -17.125 C 51.722656 -17.125 36.71875 -28.246094 36.71875 -45.191406 C 36.71875 -62.140625 51.722656 -73.261719 74.847656 -73.261719 C 98.152344 -73.261719 113.15625 -62.140625 113.15625 -45.191406 C 113.15625 -28.246094 98.152344 -17.125 74.847656 -17.125 Z M 74.847656 -17.125 "/></g></g></g><g fill="#000000" fill-opacity="1"><g transform="translate(1573.349002, 921.673449)"><g><path d="M 76.261719 -93.5625 C 59.667969 -93.5625 45.367188 -84.558594 38.660156 -69.90625 L 38.484375 -69.90625 L 34.246094 -90.382812 L 7.0625 -90.382812 L 7.0625 0 L 39.367188 0 L 39.367188 -39.894531 C 39.367188 -60.019531 48.546875 -72.90625 63.550781 -72.90625 C 73.96875 -72.90625 81.382812 -64.433594 82.265625 -50.3125 L 111.566406 -56.492188 C 109.980469 -79.4375 96.210938 -93.5625 76.261719 -93.5625 Z M 76.261719 -93.5625 "/></g></g></g><g fill="#000000" fill-opacity="1"><g transform="translate(1687.21195, 921.673449)"><g><path d="M 79.4375 3.175781 C 104.332031 3.175781 128.339844 -3.53125 140.695312 -13.0625 L 130.457031 -29.304688 C 120.925781 -22.242188 101.507812 -16.945312 81.910156 -16.945312 C 61.082031 -16.945312 42.722656 -24.007812 38.835938 -37.070312 L 138.578125 -37.070312 C 139.285156 -39.71875 139.460938 -43.25 139.460938 -45.367188 C 139.460938 -74.144531 112.628906 -93.5625 73.085938 -93.5625 C 32.660156 -93.5625 4.414062 -73.613281 4.414062 -45.546875 C 4.414062 -16.417969 35.128906 3.175781 79.4375 3.175781 Z M 38.132812 -52.78125 C 39.71875 -65.316406 54.195312 -74.320312 72.554688 -74.320312 C 91.089844 -74.320312 105.742188 -65.847656 106.800781 -52.78125 Z M 38.132812 -52.78125 "/></g></g></g></svg>