<svg xmlns="http://www.w3.org/2000/svg" xmlns:xlink="http://www.w3.org/1999/xlink" width="6912" zoomAndPan="magnify" viewBox="0 0 5184 2592.000001" height="3456" preserveAspectRatio="xMidYMid meet" version="1.0"><defs><g/><clipPath id="0e672423ca"><path d="M 4079.570312 259.101562 L 5183 259.101562 L 5183 2591 L 4079.570312 2591 Z M 4079.570312 259.101562 " clip-rule="nonzero"/></clipPath><clipPath id="03ce15ab74"><path d="M 5329.972656 259.101562 C 4639.394531 259.101562 4079.570312 818.925781 4079.570312 1509.503906 C 4079.570312 2200.082031 4639.394531 2759.90625 5329.972656 2759.90625 C 6020.550781 2759.90625 6580.375 2200.082031 6580.375 1509.503906 C 6580.375 818.925781 6020.550781 259.101562 5329.972656 259.101562 Z M 5329.972656 259.101562 " clip-rule="nonzero"/></clipPath><clipPath id="6cef918f6b"><path d="M 2409.761719 1545.914062 L 4079.570312 1545.914062 L 4079.570312 2591 L 2409.761719 2591 Z M 2409.761719 1545.914062 " clip-rule="nonzero"/></clipPath><clipPath id="9c44d97d8f"><path d="M 3244.664062 1545.914062 C 2783.558594 1545.914062 2409.761719 1919.714844 2409.761719 2380.820312 C 2409.761719 2841.925781 2783.558594 3215.722656 3244.664062 3215.722656 C 3705.769531 3215.722656 4079.570312 2841.925781 4079.570312 2380.820312 C 4079.570312 1919.714844 3705.769531 1545.914062 3244.664062 1545.914062 Z M 3244.664062 1545.914062 " clip-rule="nonzero"/></clipPath><clipPath id="561264b6f1"><path d="M 3244.664062 725.410156 L 3926.609375 725.410156 L 3926.609375 1407.351562 L 3244.664062 1407.351562 Z M 3244.664062 725.410156 " clip-rule="nonzero"/></clipPath><clipPath id="a0b8ead319"><path d="M 3585.636719 725.410156 C 3397.324219 725.410156 3244.664062 878.066406 3244.664062 1066.382812 C 3244.664062 1254.695312 3397.324219 1407.351562 3585.636719 1407.351562 C 3773.949219 1407.351562 3926.609375 1254.695312 3926.609375 1066.382812 C 3926.609375 878.066406 3773.949219 725.410156 3585.636719 725.410156 Z M 3585.636719 725.410156 " clip-rule="nonzero"/></clipPath></defs><path fill="#ffffff" d="M 1 0 L 5183 0 L 5183 2591 L 1 2591 Z M 1 0 " fill-opacity="1" fill-rule="nonzero"/><path fill="#a8dadc" d="M 1 0 L 5183 0 L 5183 2591 L 1 2591 Z M 1 0 " fill-opacity="1" fill-rule="nonzero"/><g clip-path="url(#0e672423ca)"><g clip-path="url(#03ce15ab74)"><path fill="#e63946" d="M 4079.570312 259.101562 L 6580.375 259.101562 L 6580.375 2759.90625 L 4079.570312 2759.90625 Z M 4079.570312 259.101562 " fill-opacity="1" fill-rule="nonzero"/></g></g><g clip-path="url(#6cef918f6b)"><g clip-path="url(#9c44d97d8f)"><path fill="#f1faee" d="M 2409.761719 1545.914062 L 4079.570312 1545.914062 L 4079.570312 3215.722656 L 2409.761719 3215.722656 Z M 2409.761719 1545.914062 " fill-opacity="1" fill-rule="nonzero"/></g></g><g clip-path="url(#561264b6f1)"><g clip-path="url(#a0b8ead319)"><path fill="#1d3557" d="M 3244.664062 725.410156 L 3926.609375 725.410156 L 3926.609375 1407.351562 L 3244.664062 1407.351562 Z M 3244.664062 725.410156 " fill-opacity="1" fill-rule="nonzero"/></g></g><g fill="#000000" fill-opacity="1"><g transform="translate(260.099641, 1397.133466)"><g><path d="M 6.464844 0 L 59.480469 0 L 59.480469 -7.972656 L 15.195312 -7.972656 L 15.195312 -35.34375 L 54.09375 -35.34375 L 54.09375 -43.101562 L 15.195312 -43.101562 L 15.195312 -67.992188 L 58.402344 -67.992188 L 58.402344 -75.96875 L 6.464844 -75.96875 Z M 6.464844 0 "/></g></g></g><g fill="#000000" fill-opacity="1"><g transform="translate(322.266322, 1397.133466)"><g><path d="M 1.078125 0 L 10.667969 0 L 26.398438 -23.058594 L 41.917969 0 L 51.613281 0 L 31.570312 -28.230469 L 50.535156 -54.417969 L 41.054688 -54.417969 L 26.398438 -33.1875 L 11.636719 -54.417969 L 2.15625 -54.417969 L 21.121094 -28.230469 Z M 1.078125 0 "/></g></g></g><g fill="#000000" fill-opacity="1"><g transform="translate(374.951794, 1397.133466)"><g><path d="M 5.386719 22.628906 L 13.578125 22.628906 L 13.578125 -9.050781 L 13.683594 -9.050781 C 18.425781 -2.046875 25.753906 2.15625 34.804688 2.15625 C 50.644531 2.15625 62.390625 -10.238281 62.390625 -27.152344 C 62.390625 -44.179688 50.644531 -56.570312 34.695312 -56.570312 C 25.539062 -56.570312 18.101562 -52.261719 13.46875 -45.042969 L 13.363281 -45.042969 L 12.5 -54.417969 L 5.386719 -54.417969 Z M 33.726562 -5.386719 C 21.980469 -5.386719 13.363281 -14.871094 13.363281 -27.152344 C 13.363281 -39.546875 21.980469 -49.027344 33.726562 -49.027344 C 45.472656 -49.027344 54.09375 -39.761719 54.09375 -27.152344 C 54.09375 -14.871094 45.582031 -5.386719 33.726562 -5.386719 Z M 33.726562 -5.386719 "/></g></g></g><g fill="#000000" fill-opacity="1"><g transform="translate(440.566216, 1397.133466)"><g><path d="M 5.386719 0 L 13.578125 0 L 13.578125 -79.199219 L 5.386719 -79.199219 Z M 5.386719 0 "/></g></g></g><g fill="#000000" fill-opacity="1"><g transform="translate(459.52868, 1397.133466)"><g><path d="M 32.21875 2.15625 C 49.78125 2.15625 61.3125 -9.480469 61.3125 -27.152344 C 61.3125 -44.933594 49.78125 -56.570312 32.21875 -56.570312 C 14.761719 -56.570312 3.234375 -44.933594 3.234375 -27.152344 C 3.234375 -9.480469 14.761719 2.15625 32.21875 2.15625 Z M 32.21875 -5.28125 C 19.613281 -5.28125 11.421875 -13.898438 11.421875 -27.152344 C 11.421875 -40.40625 19.613281 -49.027344 32.21875 -49.027344 C 44.824219 -49.027344 53.015625 -40.40625 53.015625 -27.152344 C 53.015625 -13.898438 44.824219 -5.28125 32.21875 -5.28125 Z M 32.21875 -5.28125 "/></g></g></g><g fill="#000000" fill-opacity="1"><g transform="translate(524.065655, 1397.133466)"><g><path d="M 28.984375 -56.679688 C 22.089844 -56.679688 16.269531 -52.476562 13.253906 -45.902344 L 13.144531 -45.902344 L 12.390625 -54.417969 L 5.386719 -54.417969 L 5.386719 0 L 13.578125 0 L 13.578125 -29.957031 C 13.578125 -41.808594 19.074219 -49.027344 27.800781 -49.027344 C 33.726562 -49.027344 37.714844 -44.933594 38.574219 -37.28125 L 45.6875 -39.652344 C 44.609375 -50.535156 38.253906 -56.679688 28.984375 -56.679688 Z M 28.984375 -56.679688 "/></g></g></g><g fill="#000000" fill-opacity="1"><g transform="translate(571.902758, 1397.133466)"><g><path d="M 33.296875 2.15625 C 45.472656 2.15625 55.710938 -3.988281 59.265625 -12.714844 L 52.152344 -15.625 C 49.136719 -9.699219 41.917969 -5.28125 33.402344 -5.28125 C 21.660156 -5.28125 12.929688 -13.144531 11.746094 -24.460938 L 57.539062 -24.460938 C 57.648438 -25.539062 57.648438 -26.722656 57.648438 -27.691406 C 57.433594 -44.503906 46.980469 -56.570312 31.035156 -56.570312 C 14.871094 -56.570312 3.234375 -44.503906 3.234375 -27.800781 C 3.234375 -10.453125 15.949219 2.15625 33.296875 2.15625 Z M 11.851562 -31.679688 C 13.363281 -42.023438 20.796875 -49.027344 30.925781 -49.027344 C 40.839844 -49.027344 47.84375 -42.777344 48.921875 -31.679688 Z M 11.851562 -31.679688 "/></g></g></g><g fill="#000000" fill-opacity="1"><g transform="translate(633.746218, 1397.133466)"><g/></g></g><g fill="#000000" fill-opacity="1"><g transform="translate(663.051819, 1397.133466)"><g><path d="M 26.183594 2.261719 C 40.40625 2.261719 48.597656 -6.25 48.597656 -21.121094 L 48.597656 -75.96875 L 39.546875 -75.96875 L 39.546875 -21.980469 C 39.546875 -11.53125 34.589844 -5.601562 25.859375 -5.601562 C 17.132812 -5.601562 11.3125 -11.097656 10.019531 -20.472656 L 2.15625 -17.132812 C 4.742188 -4.847656 13.46875 2.261719 26.183594 2.261719 Z M 26.183594 2.261719 "/></g></g></g><g fill="#000000" fill-opacity="1"><g transform="translate(717.030177, 1397.133466)"><g><path d="M 33.296875 2.15625 C 45.472656 2.15625 55.710938 -3.988281 59.265625 -12.714844 L 52.152344 -15.625 C 49.136719 -9.699219 41.917969 -5.28125 33.402344 -5.28125 C 21.660156 -5.28125 12.929688 -13.144531 11.746094 -24.460938 L 57.539062 -24.460938 C 57.648438 -25.539062 57.648438 -26.722656 57.648438 -27.691406 C 57.433594 -44.503906 46.980469 -56.570312 31.035156 -56.570312 C 14.871094 -56.570312 3.234375 -44.503906 3.234375 -27.800781 C 3.234375 -10.453125 15.949219 2.15625 33.296875 2.15625 Z M 11.851562 -31.679688 C 13.363281 -42.023438 20.796875 -49.027344 30.925781 -49.027344 C 40.839844 -49.027344 47.84375 -42.777344 48.921875 -31.679688 Z M 11.851562 -31.679688 "/></g></g></g><g fill="#000000" fill-opacity="1"><g transform="translate(778.873638, 1397.133466)"><g><path d="M 19.179688 0 L 29.847656 0 L 43.640625 -45.796875 L 43.855469 -45.796875 L 58.078125 0 L 68.640625 0 L 86.527344 -54.417969 L 78.015625 -54.417969 L 63.574219 -7.972656 L 63.46875 -7.972656 L 48.921875 -54.417969 L 38.683594 -54.417969 L 24.351562 -8.082031 L 24.246094 -8.082031 L 9.699219 -54.417969 L 1.078125 -54.417969 Z M 19.179688 0 "/></g></g></g><g fill="#000000" fill-opacity="1"><g transform="translate(866.467261, 1397.133466)"><g><path d="M 33.296875 2.15625 C 45.472656 2.15625 55.710938 -3.988281 59.265625 -12.714844 L 52.152344 -15.625 C 49.136719 -9.699219 41.917969 -5.28125 33.402344 -5.28125 C 21.660156 -5.28125 12.929688 -13.144531 11.746094 -24.460938 L 57.539062 -24.460938 C 57.648438 -25.539062 57.648438 -26.722656 57.648438 -27.691406 C 57.433594 -44.503906 46.980469 -56.570312 31.035156 -56.570312 C 14.871094 -56.570312 3.234375 -44.503906 3.234375 -27.800781 C 3.234375 -10.453125 15.949219 2.15625 33.296875 2.15625 Z M 11.851562 -31.679688 C 13.363281 -42.023438 20.796875 -49.027344 30.925781 -49.027344 C 40.839844 -49.027344 47.84375 -42.777344 48.921875 -31.679688 Z M 11.851562 -31.679688 "/></g></g></g><g fill="#000000" fill-opacity="1"><g transform="translate(928.310721, 1397.133466)"><g><path d="M 5.386719 0 L 13.578125 0 L 13.578125 -79.199219 L 5.386719 -79.199219 Z M 5.386719 0 "/></g></g></g><g fill="#000000" fill-opacity="1"><g transform="translate(947.273145, 1397.133466)"><g><path d="M 28.984375 -56.679688 C 22.089844 -56.679688 16.269531 -52.476562 13.253906 -45.902344 L 13.144531 -45.902344 L 12.390625 -54.417969 L 5.386719 -54.417969 L 5.386719 0 L 13.578125 0 L 13.578125 -29.957031 C 13.578125 -41.808594 19.074219 -49.027344 27.800781 -49.027344 C 33.726562 -49.027344 37.714844 -44.933594 38.574219 -37.28125 L 45.6875 -39.652344 C 44.609375 -50.535156 38.253906 -56.679688 28.984375 -56.679688 Z M 28.984375 -56.679688 "/></g></g></g><g fill="#000000" fill-opacity="1"><g transform="translate(995.11029, 1397.133466)"><g><path d="M 26.292969 24.785156 C 43.316406 24.785156 54.09375 15.195312 54.09375 -1.078125 L 53.984375 -54.417969 L 45.796875 -54.417969 L 45.796875 -20.90625 C 45.796875 -10.558594 37.605469 -3.125 28.125 -3.125 C 18.640625 -3.125 12.929688 -10.019531 12.929688 -19.71875 L 12.929688 -54.417969 L 4.742188 -54.417969 L 4.742188 -19.71875 C 4.742188 -5.820312 13.578125 4.308594 27.152344 4.308594 C 34.695312 4.308594 42.023438 0.539062 45.796875 -5.820312 L 45.902344 -5.820312 L 45.902344 -1.078125 C 45.902344 10.453125 38.359375 17.347656 26.078125 17.347656 C 16.378906 17.347656 9.050781 12.714844 5.601562 5.820312 L -1.402344 10.558594 C 2.800781 19.179688 12.824219 24.785156 26.292969 24.785156 Z M 26.292969 24.785156 "/></g></g></g><g fill="#000000" fill-opacity="1"><g transform="translate(1054.583416, 1397.133466)"><g><path d="M 4.308594 14.222656 C 12.929688 16.378906 19.179688 10.34375 19.179688 -0.109375 C 19.179688 -7.21875 16.378906 -10.453125 12.5 -10.453125 C 9.160156 -10.453125 6.679688 -8.082031 6.679688 -4.632812 C 6.574219 -0.753906 10.34375 2.371094 15.085938 0.648438 C 15.410156 7.113281 10.882812 12.070312 5.496094 10.453125 Z M 4.308594 14.222656 "/></g></g></g><g fill="#000000" fill-opacity="1"><g transform="translate(1078.071026, 1397.133466)"><g/></g></g><g fill="#000000" fill-opacity="1"><g transform="translate(1107.376627, 1397.133466)"><g><path d="M 6.464844 0 L 59.480469 0 L 59.480469 -7.972656 L 15.195312 -7.972656 L 15.195312 -35.34375 L 54.09375 -35.34375 L 54.09375 -43.101562 L 15.195312 -43.101562 L 15.195312 -67.992188 L 58.402344 -67.992188 L 58.402344 -75.96875 L 6.464844 -75.96875 Z M 6.464844 0 "/></g></g></g><g fill="#000000" fill-opacity="1"><g transform="translate(1169.543351, 1397.133466)"><g><path d="M 5.386719 0 L 13.578125 0 L 13.578125 -79.199219 L 5.386719 -79.199219 Z M 5.386719 0 "/></g></g></g><g fill="#000000" fill-opacity="1"><g transform="translate(1188.505857, 1397.133466)"><g><path d="M 33.296875 2.15625 C 45.472656 2.15625 55.710938 -3.988281 59.265625 -12.714844 L 52.152344 -15.625 C 49.136719 -9.699219 41.917969 -5.28125 33.402344 -5.28125 C 21.660156 -5.28125 12.929688 -13.144531 11.746094 -24.460938 L 57.539062 -24.460938 C 57.648438 -25.539062 57.648438 -26.722656 57.648438 -27.691406 C 57.433594 -44.503906 46.980469 -56.570312 31.035156 -56.570312 C 14.871094 -56.570312 3.234375 -44.503906 3.234375 -27.800781 C 3.234375 -10.453125 15.949219 2.15625 33.296875 2.15625 Z M 11.851562 -31.679688 C 13.363281 -42.023438 20.796875 -49.027344 30.925781 -49.027344 C 40.839844 -49.027344 47.84375 -42.777344 48.921875 -31.679688 Z M 11.851562 -31.679688 "/></g></g></g><g fill="#000000" fill-opacity="1"><g transform="translate(1250.349277, 1397.133466)"><g><path d="M 32.003906 2.15625 C 46.011719 2.15625 57.539062 -6.894531 59.589844 -19.394531 L 51.613281 -21.011719 C 50.105469 -11.636719 41.917969 -5.28125 32.003906 -5.28125 C 20.148438 -5.28125 11.421875 -14.117188 11.421875 -27.152344 C 11.421875 -40.191406 19.503906 -49.027344 30.386719 -49.027344 C 38.359375 -49.027344 45.257812 -43.964844 47.410156 -36.097656 L 55.386719 -37.929688 C 52.691406 -48.921875 42.671875 -56.570312 30.386719 -56.570312 C 14.4375 -56.570312 3.234375 -44.394531 3.234375 -27.152344 C 3.234375 -10.019531 15.085938 2.15625 32.003906 2.15625 Z M 32.003906 2.15625 "/></g></g></g><g fill="#000000" fill-opacity="1"><g transform="translate(1312.085038, 1397.133466)"><g><path d="M 29.09375 2.15625 C 38.359375 2.15625 46.65625 -3.664062 48.167969 -13.144531 L 41.484375 -15.949219 C 40.40625 -8.945312 35.34375 -4.957031 29.847656 -4.957031 C 23.921875 -4.957031 20.148438 -9.375 20.148438 -15.515625 L 20.148438 -47.628906 L 44.503906 -47.628906 L 44.503906 -54.417969 L 20.148438 -54.417969 L 20.148438 -72.519531 L 11.960938 -70.578125 L 11.960938 -54.417969 L 0 -54.417969 L 0 -47.628906 L 11.960938 -47.628906 L 11.960938 -14.65625 C 11.960938 -4.742188 18.855469 2.15625 29.09375 2.15625 Z M 29.09375 2.15625 "/></g></g></g><g fill="#000000" fill-opacity="1"><g transform="translate(1360.676284, 1397.133466)"><g><path d="M 28.984375 -56.679688 C 22.089844 -56.679688 16.269531 -52.476562 13.253906 -45.902344 L 13.144531 -45.902344 L 12.390625 -54.417969 L 5.386719 -54.417969 L 5.386719 0 L 13.578125 0 L 13.578125 -29.957031 C 13.578125 -41.808594 19.074219 -49.027344 27.800781 -49.027344 C 33.726562 -49.027344 37.714844 -44.933594 38.574219 -37.28125 L 45.6875 -39.652344 C 44.609375 -50.535156 38.253906 -56.679688 28.984375 -56.679688 Z M 28.984375 -56.679688 "/></g></g></g><g fill="#000000" fill-opacity="1"><g transform="translate(1408.513429, 1397.133466)"><g><path d="M 32.21875 2.15625 C 49.78125 2.15625 61.3125 -9.480469 61.3125 -27.152344 C 61.3125 -44.933594 49.78125 -56.570312 32.21875 -56.570312 C 14.761719 -56.570312 3.234375 -44.933594 3.234375 -27.152344 C 3.234375 -9.480469 14.761719 2.15625 32.21875 2.15625 Z M 32.21875 -5.28125 C 19.613281 -5.28125 11.421875 -13.898438 11.421875 -27.152344 C 11.421875 -40.40625 19.613281 -49.027344 32.21875 -49.027344 C 44.824219 -49.027344 53.015625 -40.40625 53.015625 -27.152344 C 53.015625 -13.898438 44.824219 -5.28125 32.21875 -5.28125 Z M 32.21875 -5.28125 "/></g></g></g><g fill="#000000" fill-opacity="1"><g transform="translate(1473.050444, 1397.133466)"><g><path d="M 34.589844 -56.570312 C 25.105469 -56.570312 18.316406 -52.90625 13.683594 -46.335938 L 13.578125 -46.335938 L 12.824219 -54.417969 L 5.386719 -54.417969 L 5.386719 0 L 13.578125 0 L 13.578125 -30.710938 C 13.578125 -41.808594 21.441406 -49.460938 32.328125 -49.460938 C 40.945312 -49.460938 46.441406 -43.53125 46.441406 -34.265625 L 46.441406 0 L 54.738281 0 L 54.738281 -35.128906 C 54.738281 -48.597656 47.089844 -56.570312 34.589844 -56.570312 Z M 34.589844 -56.570312 "/></g></g></g><g fill="#000000" fill-opacity="1"><g transform="translate(1532.631395, 1397.133466)"><g><path d="M 10.34375 -64.976562 C 13.898438 -64.976562 16.488281 -67.347656 16.488281 -71.011719 C 16.488281 -74.566406 13.898438 -76.9375 10.34375 -76.9375 C 6.679688 -76.9375 4.308594 -74.566406 4.308594 -71.011719 C 4.308594 -67.347656 6.679688 -64.976562 10.34375 -64.976562 Z M 6.140625 0 L 14.332031 0 L 14.332031 -54.417969 L 6.140625 -54.417969 Z M 6.140625 0 "/></g></g></g><g fill="#000000" fill-opacity="1"><g transform="translate(1553.425409, 1397.133466)"><g><path d="M 32.003906 2.15625 C 46.011719 2.15625 57.539062 -6.894531 59.589844 -19.394531 L 51.613281 -21.011719 C 50.105469 -11.636719 41.917969 -5.28125 32.003906 -5.28125 C 20.148438 -5.28125 11.421875 -14.117188 11.421875 -27.152344 C 11.421875 -40.191406 19.503906 -49.027344 30.386719 -49.027344 C 38.359375 -49.027344 45.257812 -43.964844 47.410156 -36.097656 L 55.386719 -37.929688 C 52.691406 -48.921875 42.671875 -56.570312 30.386719 -56.570312 C 14.4375 -56.570312 3.234375 -44.394531 3.234375 -27.152344 C 3.234375 -10.019531 15.085938 2.15625 32.003906 2.15625 Z M 32.003906 2.15625 "/></g></g></g><g fill="#000000" fill-opacity="1"><g transform="translate(1615.16117, 1397.133466)"><g><path d="M 27.910156 2.15625 C 41.054688 2.15625 50.96875 -5.386719 50.96875 -15.625 C 50.96875 -23.707031 45.472656 -28.230469 32.648438 -30.925781 L 23.8125 -32.648438 C 16.269531 -34.265625 13.039062 -36.527344 13.039062 -40.515625 C 13.144531 -45.148438 18.210938 -49.351562 25.105469 -49.351562 C 32.863281 -49.351562 38.574219 -45.148438 39.332031 -39.4375 L 47.195312 -41.59375 C 45.148438 -50.429688 36.636719 -56.570312 25.214844 -56.570312 C 13.578125 -56.570312 5.171875 -49.566406 5.066406 -40.085938 C 5.066406 -32.109375 9.914062 -27.585938 21.226562 -25.214844 L 29.847656 -23.492188 C 39.007812 -21.660156 42.992188 -19.074219 42.992188 -14.871094 C 42.992188 -9.265625 36.421875 -5.28125 27.910156 -5.28125 C 18.210938 -5.28125 10.882812 -10.558594 10.238281 -18.101562 L 2.15625 -16.488281 C 3.125 -4.847656 14.332031 2.15625 27.910156 2.15625 Z M 27.910156 2.15625 "/></g></g></g><g fill="#000000" fill-opacity="1"><g transform="translate(1668.277684, 1397.133466)"><g/></g></g><g fill="#000000" fill-opacity="1"><g transform="translate(1697.583285, 1397.133466)"><g><path d="M 59.589844 -14.65625 C 63.144531 -19.289062 66.160156 -24.785156 68.746094 -30.925781 L 62.390625 -36.636719 C 60.34375 -30.171875 57.433594 -24.351562 53.878906 -19.71875 L 33.835938 -38.039062 C 47.84375 -43.425781 53.769531 -49.78125 53.769531 -59.050781 C 53.769531 -71.117188 44.503906 -77.796875 32.648438 -77.796875 C 20.472656 -77.796875 11.53125 -69.609375 11.53125 -58.402344 C 11.421875 -51.398438 15.195312 -45.363281 19.394531 -40.730469 C 8.082031 -35.558594 3.234375 -28.984375 3.234375 -18.964844 C 3.234375 -6.359375 13.683594 2.695312 28.339844 2.695312 C 37.820312 2.695312 46.65625 -1.507812 53.984375 -8.621094 L 63.574219 0 L 75.644531 0 Z M 32.648438 -69.824219 C 39.546875 -69.824219 45.257812 -64.867188 45.148438 -58.296875 C 45.148438 -52.152344 40.085938 -47.519531 28.125 -43.210938 C 23.058594 -47.84375 20.257812 -52.90625 20.148438 -58.078125 C 20.148438 -65.082031 25.539062 -69.824219 32.648438 -69.824219 Z M 29.417969 -5.28125 C 19.394531 -5.28125 12.070312 -11.097656 12.070312 -19.179688 C 12.070312 -26.832031 15.949219 -31.570312 25.105469 -35.128906 L 48.273438 -13.792969 C 42.992188 -8.40625 36.746094 -5.28125 29.417969 -5.28125 Z M 29.417969 -5.28125 "/></g></g></g><g fill="#000000" fill-opacity="1"><g transform="translate(1773.217663, 1397.133466)"><g/></g></g><g fill="#000000" fill-opacity="1"><g transform="translate(1802.523264, 1397.133466)"><g><path d="M 1.078125 0 L 10.667969 0 L 17.671875 -18.210938 L 54.308594 -18.210938 L 61.203125 0 L 70.6875 0 L 41.378906 -75.96875 L 30.601562 -75.96875 Z M 20.257812 -26.183594 L 35.882812 -67.132812 L 36.097656 -67.132812 L 51.613281 -26.183594 Z M 20.257812 -26.183594 "/></g></g></g><g fill="#000000" fill-opacity="1"><g transform="translate(1874.278982, 1397.133466)"><g><path d="M 5.386719 22.628906 L 13.578125 22.628906 L 13.578125 -9.050781 L 13.683594 -9.050781 C 18.425781 -2.046875 25.753906 2.15625 34.804688 2.15625 C 50.644531 2.15625 62.390625 -10.238281 62.390625 -27.152344 C 62.390625 -44.179688 50.644531 -56.570312 34.695312 -56.570312 C 25.539062 -56.570312 18.101562 -52.261719 13.46875 -45.042969 L 13.363281 -45.042969 L 12.5 -54.417969 L 5.386719 -54.417969 Z M 33.726562 -5.386719 C 21.980469 -5.386719 13.363281 -14.871094 13.363281 -27.152344 C 13.363281 -39.546875 21.980469 -49.027344 33.726562 -49.027344 C 45.472656 -49.027344 54.09375 -39.761719 54.09375 -27.152344 C 54.09375 -14.871094 45.582031 -5.386719 33.726562 -5.386719 Z M 33.726562 -5.386719 "/></g></g></g><g fill="#000000" fill-opacity="1"><g transform="translate(1939.893404, 1397.133466)"><g><path d="M 5.386719 22.628906 L 13.578125 22.628906 L 13.578125 -9.050781 L 13.683594 -9.050781 C 18.425781 -2.046875 25.753906 2.15625 34.804688 2.15625 C 50.644531 2.15625 62.390625 -10.238281 62.390625 -27.152344 C 62.390625 -44.179688 50.644531 -56.570312 34.695312 -56.570312 C 25.539062 -56.570312 18.101562 -52.261719 13.46875 -45.042969 L 13.363281 -45.042969 L 12.5 -54.417969 L 5.386719 -54.417969 Z M 33.726562 -5.386719 C 21.980469 -5.386719 13.363281 -14.871094 13.363281 -27.152344 C 13.363281 -39.546875 21.980469 -49.027344 33.726562 -49.027344 C 45.472656 -49.027344 54.09375 -39.761719 54.09375 -27.152344 C 54.09375 -14.871094 45.582031 -5.386719 33.726562 -5.386719 Z M 33.726562 -5.386719 "/></g></g></g><g fill="#000000" fill-opacity="1"><g transform="translate(2005.507826, 1397.133466)"><g><path d="M 23.167969 2.15625 C 32.863281 2.15625 40.40625 -2.15625 44.289062 -9.050781 L 44.394531 -9.050781 L 44.503906 -6.574219 C 44.824219 -1.617188 48.167969 2.15625 53.445312 2.15625 C 57.648438 2.15625 62.175781 -0.109375 64.4375 -3.449219 L 60.019531 -8.621094 C 58.835938 -6.679688 57.109375 -5.386719 55.601562 -5.386719 C 53.878906 -5.386719 52.691406 -6.894531 52.691406 -9.050781 L 52.691406 -36.636719 C 52.691406 -48.8125 42.886719 -56.570312 28.984375 -56.570312 C 14.871094 -56.570312 4.308594 -48.167969 3.339844 -39.222656 L 10.777344 -36.097656 C 11.207031 -42.5625 18.425781 -49.136719 28.664062 -49.136719 C 38.144531 -49.136719 44.609375 -44.71875 44.609375 -37.929688 C 44.609375 -35.558594 42.886719 -34.050781 40.191406 -33.726562 L 26.722656 -32.109375 C 9.050781 -29.957031 2.15625 -22.953125 2.15625 -14.222656 C 2.15625 -4.527344 10.777344 2.15625 23.167969 2.15625 Z M 24.566406 -5.28125 C 16.269531 -5.28125 10.34375 -8.835938 10.34375 -14.332031 C 10.34375 -19.289062 14.4375 -23.492188 27.585938 -25.105469 L 44.394531 -27.152344 L 44.394531 -23.273438 C 44.394531 -12.714844 35.988281 -5.28125 24.566406 -5.28125 Z M 24.566406 -5.28125 "/></g></g></g><g fill="#000000" fill-opacity="1"><g transform="translate(2069.93702, 1397.133466)"><g><path d="M 28.984375 -56.679688 C 22.089844 -56.679688 16.269531 -52.476562 13.253906 -45.902344 L 13.144531 -45.902344 L 12.390625 -54.417969 L 5.386719 -54.417969 L 5.386719 0 L 13.578125 0 L 13.578125 -29.957031 C 13.578125 -41.808594 19.074219 -49.027344 27.800781 -49.027344 C 33.726562 -49.027344 37.714844 -44.933594 38.574219 -37.28125 L 45.6875 -39.652344 C 44.609375 -50.535156 38.253906 -56.679688 28.984375 -56.679688 Z M 28.984375 -56.679688 "/></g></g></g><g fill="#000000" fill-opacity="1"><g transform="translate(2117.774165, 1397.133466)"><g><path d="M 33.296875 2.15625 C 45.472656 2.15625 55.710938 -3.988281 59.265625 -12.714844 L 52.152344 -15.625 C 49.136719 -9.699219 41.917969 -5.28125 33.402344 -5.28125 C 21.660156 -5.28125 12.929688 -13.144531 11.746094 -24.460938 L 57.539062 -24.460938 C 57.648438 -25.539062 57.648438 -26.722656 57.648438 -27.691406 C 57.433594 -44.503906 46.980469 -56.570312 31.035156 -56.570312 C 14.871094 -56.570312 3.234375 -44.503906 3.234375 -27.800781 C 3.234375 -10.453125 15.949219 2.15625 33.296875 2.15625 Z M 11.851562 -31.679688 C 13.363281 -42.023438 20.796875 -49.027344 30.925781 -49.027344 C 40.839844 -49.027344 47.84375 -42.777344 48.921875 -31.679688 Z M 11.851562 -31.679688 "/></g></g></g><g fill="#000000" fill-opacity="1"><g transform="translate(2179.617585, 1397.133466)"><g><path d="M 5.386719 0 L 13.578125 0 L 13.578125 -79.199219 L 5.386719 -79.199219 Z M 5.386719 0 "/></g></g></g><g fill="#000000" fill-opacity="1"><g transform="translate(260.099641, 1224.028402)"><g><path d="M 0.488281 0 L 51.433594 0 L 68.011719 -34.128906 L 165.519531 -34.128906 L 182.09375 0 L 233.042969 0 L 146.019531 -173.5625 L 89.21875 -173.5625 Z M 78.980469 -63.625 L 116.765625 -141.875 L 117.253906 -141.875 L 154.550781 -63.625 Z M 78.980469 -63.625 "/></g></g></g><g fill="#000000" fill-opacity="1"><g transform="translate(493.873986, 1224.028402)"><g><path d="M 9.75 0 L 54.359375 0 L 54.359375 -57.285156 C 54.359375 -83.613281 70.449219 -99.457031 97.75 -99.457031 C 119.691406 -99.457031 132.855469 -87.269531 132.855469 -67.035156 L 132.855469 0 L 177.464844 0 L 177.464844 -57.285156 C 177.464844 -83.367188 193.554688 -99.457031 220.855469 -99.457031 C 242.792969 -99.457031 255.957031 -87.269531 255.957031 -67.035156 L 255.957031 0 L 300.566406 0 L 300.566406 -74.105469 C 300.566406 -106.769531 278.140625 -129.199219 240.113281 -129.199219 C 211.835938 -129.199219 185.996094 -116.523438 174.296875 -93.121094 L 174.050781 -93.121094 C 166.496094 -115.304688 146.75 -129.199219 117.007812 -129.199219 C 88.246094 -129.199219 64.355469 -115.789062 53.140625 -94.339844 L 52.898438 -94.339844 L 47.292969 -124.808594 L 9.75 -124.808594 Z M 9.75 0 "/></g></g></g><g fill="#000000" fill-opacity="1"><g transform="translate(802.241621, 1224.028402)"><g><path d="M 68.742188 4.386719 C 104.578125 4.386719 134.074219 -8.53125 146.261719 -28.035156 L 146.503906 -28.035156 L 146.75 -24.863281 C 148.699219 -6.824219 164.300781 4.386719 188.433594 4.386719 C 205.496094 4.386719 220.855469 -0.730469 228.410156 -8.777344 L 218.171875 -29.738281 C 214.515625 -25.839844 208.667969 -23.15625 202.816406 -23.15625 C 195.015625 -23.15625 190.382812 -27.789062 190.382812 -34.859375 L 190.382812 -81.90625 C 190.382812 -112.132812 154.550781 -129.199219 104.332031 -129.199219 C 65.816406 -129.199219 27.058594 -117.496094 6.339844 -100.1875 L 19.746094 -76.300781 C 39.734375 -91.902344 73.375 -102.382812 104.578125 -102.382812 C 129.441406 -102.382812 146.75 -95.3125 146.75 -86.292969 C 146.75 -82.882812 143.335938 -80.6875 137.972656 -80.199219 L 84.589844 -75.570312 C 32.910156 -70.9375 4.875 -54.847656 4.875 -30.714844 C 4.875 -8.042969 28.277344 4.386719 68.742188 4.386719 Z M 82.882812 -23.644531 C 60.941406 -23.644531 49.484375 -28.519531 49.484375 -37.539062 C 49.484375 -46.316406 62.40625 -51.679688 87.757812 -53.628906 L 146.019531 -58.503906 L 146.019531 -55.335938 C 146.019531 -37.296875 119.933594 -23.644531 82.882812 -23.644531 Z M 82.882812 -23.644531 "/></g></g></g><g fill="#000000" fill-opacity="1"><g transform="translate(1031.38435, 1224.028402)"><g><path d="M 105.308594 -129.199219 C 82.394531 -129.199219 62.648438 -116.765625 53.386719 -96.53125 L 53.140625 -96.53125 L 47.292969 -124.808594 L 9.75 -124.808594 L 9.75 0 L 54.359375 0 L 54.359375 -55.09375 C 54.359375 -82.882812 67.035156 -100.675781 87.757812 -100.675781 C 102.140625 -100.675781 112.378906 -88.976562 113.597656 -69.472656 L 154.0625 -78.007812 C 151.867188 -109.695312 132.855469 -129.199219 105.308594 -129.199219 Z M 105.308594 -129.199219 "/></g></g></g><g fill="#000000" fill-opacity="1"><g transform="translate(1188.615223, 1224.028402)"><g><path d="M 68.742188 4.386719 C 104.578125 4.386719 134.074219 -8.53125 146.261719 -28.035156 L 146.503906 -28.035156 L 146.75 -24.863281 C 148.699219 -6.824219 164.300781 4.386719 188.433594 4.386719 C 205.496094 4.386719 220.855469 -0.730469 228.410156 -8.777344 L 218.171875 -29.738281 C 214.515625 -25.839844 208.667969 -23.15625 202.816406 -23.15625 C 195.015625 -23.15625 190.382812 -27.789062 190.382812 -34.859375 L 190.382812 -81.90625 C 190.382812 -112.132812 154.550781 -129.199219 104.332031 -129.199219 C 65.816406 -129.199219 27.058594 -117.496094 6.339844 -100.1875 L 19.746094 -76.300781 C 39.734375 -91.902344 73.375 -102.382812 104.578125 -102.382812 C 129.441406 -102.382812 146.75 -95.3125 146.75 -86.292969 C 146.75 -82.882812 143.335938 -80.6875 137.972656 -80.199219 L 84.589844 -75.570312 C 32.910156 -70.9375 4.875 -54.847656 4.875 -30.714844 C 4.875 -8.042969 28.277344 4.386719 68.742188 4.386719 Z M 82.882812 -23.644531 C 60.941406 -23.644531 49.484375 -28.519531 49.484375 -37.539062 C 49.484375 -46.316406 62.40625 -51.679688 87.757812 -53.628906 L 146.019531 -58.503906 L 146.019531 -55.335938 C 146.019531 -37.296875 119.933594 -23.644531 82.882812 -23.644531 Z M 82.882812 -23.644531 "/></g></g></g><g fill="#000000" fill-opacity="1"><g transform="translate(1417.757889, 1224.028402)"><g/></g></g><g fill="#000000" fill-opacity="1"><g transform="translate(1481.625294, 1224.028402)"><g><path d="M 113.109375 5.605469 C 172.34375 5.605469 211.347656 -18.039062 211.105469 -52.652344 C 211.105469 -82.394531 187.457031 -97.996094 132.121094 -104.332031 L 95.800781 -108.964844 C 70.9375 -111.890625 60.210938 -117.253906 60.453125 -126.515625 C 60.453125 -139.191406 80.199219 -147.480469 107.746094 -147.722656 C 136.265625 -147.722656 164.300781 -137.730469 180.632812 -122.859375 L 197.453125 -150.894531 C 178.683594 -167.957031 144.800781 -179.171875 107.503906 -179.171875 C 51.191406 -179.171875 12.675781 -158.449219 12.433594 -123.101562 C 12.433594 -94.339844 34.128906 -79.710938 84.34375 -73.863281 L 120.910156 -68.988281 C 150.648438 -65.332031 163.324219 -58.75 163.324219 -48.511719 C 163.324219 -35.835938 144.554688 -27.300781 115.546875 -27.300781 C 78.738281 -27.300781 41.195312 -41.683594 24.621094 -61.917969 L 4.875 -33.152344 C 24.621094 -10.480469 68.253906 5.605469 113.109375 5.605469 Z M 113.109375 5.605469 "/></g></g></g><g fill="#000000" fill-opacity="1"><g transform="translate(1697.604446, 1224.028402)"><g><path d="M 100.1875 4.386719 C 129.199219 4.386719 150.648438 -5.363281 166.496094 -23.890625 L 153.332031 -48.265625 C 142.359375 -34.617188 128.953125 -26.816406 111.644531 -26.816406 C 92.875 -26.816406 83.855469 -36.078125 84.101562 -52.898438 L 84.101562 -96.53125 L 162.105469 -96.53125 L 162.105469 -124.808594 L 84.101562 -124.808594 L 84.101562 -168.445312 L 39.246094 -160.398438 L 39.246094 -124.808594 L 1.21875 -124.808594 L 1.21875 -96.53125 L 39.492188 -96.53125 L 39.492188 -43.878906 C 39.734375 -13.652344 62.160156 4.386719 100.1875 4.386719 Z M 100.1875 4.386719 "/></g></g></g><g fill="#000000" fill-opacity="1"><g transform="translate(1867.267625, 1224.028402)"><g><path d="M 103.359375 4.386719 C 162.351562 4.386719 200.867188 -22.183594 200.867188 -62.40625 C 200.867188 -102.625 162.351562 -129.199219 103.359375 -129.199219 C 44.609375 -129.199219 6.09375 -102.625 6.09375 -62.40625 C 6.09375 -22.183594 44.609375 4.386719 103.359375 4.386719 Z M 103.359375 -23.644531 C 71.425781 -23.644531 50.703125 -39.003906 50.703125 -62.40625 C 50.703125 -85.808594 71.425781 -101.164062 103.359375 -101.164062 C 135.535156 -101.164062 156.257812 -85.808594 156.257812 -62.40625 C 156.257812 -39.003906 135.535156 -23.644531 103.359375 -23.644531 Z M 103.359375 -23.644531 "/></g></g></g><g fill="#000000" fill-opacity="1"><g transform="translate(2074.227345, 1224.028402)"><g><path d="M 105.308594 -129.199219 C 82.394531 -129.199219 62.648438 -116.765625 53.386719 -96.53125 L 53.140625 -96.53125 L 47.292969 -124.808594 L 9.75 -124.808594 L 9.75 0 L 54.359375 0 L 54.359375 -55.09375 C 54.359375 -82.882812 67.035156 -100.675781 87.757812 -100.675781 C 102.140625 -100.675781 112.378906 -88.976562 113.597656 -69.472656 L 154.0625 -78.007812 C 151.867188 -109.695312 132.855469 -129.199219 105.308594 -129.199219 Z M 105.308594 -129.199219 "/></g></g></g><g fill="#000000" fill-opacity="1"><g transform="translate(2231.458218, 1224.028402)"><g><path d="M 109.695312 4.386719 C 144.066406 4.386719 177.21875 -4.875 194.285156 -18.039062 L 180.144531 -40.464844 C 166.980469 -30.714844 140.167969 -23.402344 113.109375 -23.402344 C 84.34375 -23.402344 58.992188 -33.152344 53.628906 -51.191406 L 191.359375 -51.191406 C 192.332031 -54.847656 192.578125 -59.722656 192.578125 -62.648438 C 192.578125 -102.382812 155.523438 -129.199219 100.921875 -129.199219 C 45.097656 -129.199219 6.09375 -101.652344 6.09375 -62.890625 C 6.09375 -22.671875 48.511719 4.386719 109.695312 4.386719 Z M 52.652344 -72.886719 C 54.847656 -90.195312 74.835938 -102.625 100.1875 -102.625 C 125.785156 -102.625 146.019531 -90.925781 147.480469 -72.886719 Z M 52.652344 -72.886719 "/></g></g></g></svg>