<svg xmlns="http://www.w3.org/2000/svg" xmlns:xlink="http://www.w3.org/1999/xlink" width="3456" zoomAndPan="magnify" viewBox="0 0 2592 2592.000001" height="3456" preserveAspectRatio="xMidYMid meet" version="1.0"><defs><g/><clipPath id="20634fa56f"><path d="M 429 232.109375 L 1985.753906 232.109375 L 1985.753906 2305 L 429 2305 Z M 429 232.109375 " clip-rule="nonzero"/></clipPath></defs><path fill="#e63946" d="M 931.828125 1003.847656 C 809.152344 1112.03125 792.828125 1296.527344 891.097656 1424.347656 L 1084.78125 1253.585938 L 1160.421875 1186.875 L 1354.109375 1016.128906 C 1239.621094 902.589844 1054.519531 895.664062 931.828125 1003.847656 Z M 931.828125 1003.847656 " fill-opacity="1" fill-rule="nonzero"/><g clip-path="url(#20634fa56f)"><path fill="#e63946" d="M 1594.621094 804.082031 L 1985.359375 1144.746094 L 1912.984375 596.058594 L 1668.015625 596.058594 C 1657.097656 393.546875 1488.925781 232.109375 1283.71875 232.109375 C 1078.511719 232.109375 910.339844 393.546875 899.421875 596.058594 L 654.433594 596.058594 L 429.035156 2304.910156 L 1099.621094 2304.910156 L 650.601562 1636.398438 L 834.355469 1474.390625 C 708.621094 1315.269531 728.003906 1082.960938 881.925781 947.242188 C 1035.847656 811.542969 1268.742188 821.40625 1410.867188 966.089844 L 1411.007812 965.984375 L 1611.015625 1163.367188 L 1634.867188 1145.472656 L 1434.464844 945.273438 Z M 1334.140625 596.058594 L 975.0625 596.058594 C 985.890625 435.175781 1120.125 307.578125 1283.703125 307.578125 C 1447.261719 307.578125 1581.511719 435.175781 1592.324219 596.058594 Z M 1334.140625 596.058594 " fill-opacity="1" fill-rule="nonzero"/></g><path fill="#e63946" d="M 1115.925781 1604.769531 L 914.605469 1403.621094 L 891.113281 1424.347656 L 1092.089844 1622.664062 Z M 1115.925781 1604.769531 " fill-opacity="1" fill-rule="nonzero"/><g fill="#1d3557" fill-opacity="1"><g transform="translate(1193.64315, 1872.978188)"><g><path d="M -27.132812 0 L 117.820312 0 L 179.230469 -99.96875 L 447.003906 -99.96875 L 476.996094 0 L 621.234375 0 L 461.285156 -508.414062 L 297.765625 -508.414062 Z M 223.503906 -186.371094 L 362.746094 -414.871094 L 364.171875 -414.871094 L 430.582031 -186.371094 Z M 223.503906 -186.371094 "/></g></g></g></svg>