<svg xmlns="http://www.w3.org/2000/svg" xmlns:xlink="http://www.w3.org/1999/xlink" width="3456" zoomAndPan="magnify" viewBox="0 0 2592 576" height="768" preserveAspectRatio="xMidYMid meet" version="1.0"><defs><g/><clipPath id="d691ba676d"><path d="M 120.714844 76.171875 L 413 76.171875 L 413 465.421875 L 120.714844 465.421875 Z M 120.714844 76.171875 " clip-rule="nonzero"/></clipPath></defs><path fill="#e63946" d="M 215.128906 220.964844 C 192.113281 241.261719 189.050781 275.875 207.488281 299.859375 L 243.828125 267.820312 L 258.019531 255.304688 L 294.359375 223.269531 C 272.878906 201.964844 238.148438 200.667969 215.128906 220.964844 Z M 215.128906 220.964844 " fill-opacity="1" fill-rule="nonzero"/><g clip-path="url(#d691ba676d)"><path fill="#e63946" d="M 339.484375 183.484375 L 412.792969 247.398438 L 399.214844 144.453125 L 353.253906 144.453125 C 351.207031 106.457031 319.652344 76.171875 281.152344 76.171875 C 242.652344 76.171875 211.097656 106.457031 209.050781 144.453125 L 163.085938 144.453125 L 120.796875 465.070312 L 246.613281 465.070312 L 162.367188 339.640625 L 196.84375 309.246094 C 173.253906 279.390625 176.890625 235.804688 205.769531 210.34375 C 234.648438 184.882812 278.34375 186.734375 305.007812 213.878906 L 305.035156 213.859375 L 342.558594 250.890625 L 347.035156 247.535156 L 309.433594 209.972656 Z M 290.613281 144.453125 L 223.242188 144.453125 C 225.273438 114.269531 250.457031 90.328125 281.148438 90.328125 C 311.835938 90.328125 337.023438 114.269531 339.054688 144.453125 Z M 290.613281 144.453125 " fill-opacity="1" fill-rule="nonzero"/></g><path fill="#e63946" d="M 249.671875 333.707031 L 211.898438 295.96875 L 207.492188 299.859375 L 245.199219 337.066406 Z M 249.671875 333.707031 " fill-opacity="1" fill-rule="nonzero"/><g fill="#f1faee" fill-opacity="1"><g transform="translate(417.508207, 391.895077)"><g><path d="M 0.453125 0 L 47.6875 0 L 63.054688 -31.640625 L 153.457031 -31.640625 L 168.828125 0 L 216.0625 0 L 135.378906 -160.917969 L 82.71875 -160.917969 Z M 73.226562 -58.988281 L 108.257812 -131.535156 L 108.710938 -131.535156 L 143.289062 -58.988281 Z M 73.226562 -58.988281 "/></g></g></g><g fill="#f1faee" fill-opacity="1"><g transform="translate(634.2487, 391.895077)"><g><path d="M 9.039062 0 L 50.398438 0 L 50.398438 -53.113281 C 50.398438 -77.519531 65.316406 -92.210938 90.628906 -92.210938 C 110.96875 -92.210938 123.175781 -80.910156 123.175781 -62.152344 L 123.175781 0 L 164.535156 0 L 164.535156 -53.113281 C 164.535156 -77.292969 179.449219 -92.210938 204.761719 -92.210938 C 225.101562 -92.210938 237.308594 -80.910156 237.308594 -62.152344 L 237.308594 0 L 278.667969 0 L 278.667969 -68.707031 C 278.667969 -98.992188 257.875 -119.785156 222.617188 -119.785156 C 196.398438 -119.785156 172.445312 -108.03125 161.59375 -86.335938 L 161.367188 -86.335938 C 154.363281 -106.902344 136.054688 -119.785156 108.484375 -119.785156 C 81.816406 -119.785156 59.664062 -107.351562 49.269531 -87.464844 L 49.042969 -87.464844 L 43.84375 -115.714844 L 9.039062 -115.714844 Z M 9.039062 0 "/></g></g></g><g fill="#f1faee" fill-opacity="1"><g transform="translate(920.147281, 391.895077)"><g><path d="M 63.734375 4.066406 C 96.957031 4.066406 124.304688 -7.910156 135.605469 -25.992188 L 135.832031 -25.992188 L 136.054688 -23.050781 C 137.863281 -6.328125 152.328125 4.066406 174.703125 4.066406 C 190.523438 4.066406 204.761719 -0.679688 211.769531 -8.136719 L 202.277344 -27.574219 C 198.886719 -23.957031 193.460938 -21.46875 188.039062 -21.46875 C 180.804688 -21.46875 176.511719 -25.765625 176.511719 -32.320312 L 176.511719 -75.9375 C 176.511719 -103.964844 143.289062 -119.785156 96.730469 -119.785156 C 61.023438 -119.785156 25.085938 -108.933594 5.875 -92.890625 L 18.304688 -70.742188 C 36.839844 -85.203125 68.027344 -94.921875 96.957031 -94.921875 C 120.011719 -94.921875 136.054688 -88.367188 136.054688 -80.007812 C 136.054688 -76.84375 132.890625 -74.808594 127.921875 -74.355469 L 78.425781 -70.0625 C 30.511719 -65.769531 4.519531 -50.851562 4.519531 -28.476562 C 4.519531 -7.457031 26.21875 4.066406 63.734375 4.066406 Z M 76.84375 -21.921875 C 56.5 -21.921875 45.878906 -26.441406 45.878906 -34.804688 C 45.878906 -42.941406 57.859375 -47.914062 81.363281 -49.722656 L 135.378906 -54.242188 L 135.378906 -51.304688 C 135.378906 -34.578125 111.195312 -21.921875 76.84375 -21.921875 Z M 76.84375 -21.921875 "/></g></g></g><g fill="#f1faee" fill-opacity="1"><g transform="translate(1132.593638, 391.895077)"><g><path d="M 97.636719 -119.785156 C 76.390625 -119.785156 58.082031 -108.257812 49.496094 -89.5 L 49.269531 -89.5 L 43.84375 -115.714844 L 9.039062 -115.714844 L 9.039062 0 L 50.398438 0 L 50.398438 -51.078125 C 50.398438 -76.84375 62.152344 -93.339844 81.363281 -93.339844 C 94.695312 -93.339844 104.1875 -82.492188 105.320312 -64.410156 L 142.835938 -72.324219 C 140.800781 -101.703125 123.175781 -119.785156 97.636719 -119.785156 Z M 97.636719 -119.785156 "/></g></g></g><g fill="#f1faee" fill-opacity="1"><g transform="translate(1278.367962, 391.895077)"><g><path d="M 63.734375 4.066406 C 96.957031 4.066406 124.304688 -7.910156 135.605469 -25.992188 L 135.832031 -25.992188 L 136.054688 -23.050781 C 137.863281 -6.328125 152.328125 4.066406 174.703125 4.066406 C 190.523438 4.066406 204.761719 -0.679688 211.769531 -8.136719 L 202.277344 -27.574219 C 198.886719 -23.957031 193.460938 -21.46875 188.039062 -21.46875 C 180.804688 -21.46875 176.511719 -25.765625 176.511719 -32.320312 L 176.511719 -75.9375 C 176.511719 -103.964844 143.289062 -119.785156 96.730469 -119.785156 C 61.023438 -119.785156 25.085938 -108.933594 5.875 -92.890625 L 18.304688 -70.742188 C 36.839844 -85.203125 68.027344 -94.921875 96.957031 -94.921875 C 120.011719 -94.921875 136.054688 -88.367188 136.054688 -80.007812 C 136.054688 -76.84375 132.890625 -74.808594 127.921875 -74.355469 L 78.425781 -70.0625 C 30.511719 -65.769531 4.519531 -50.851562 4.519531 -28.476562 C 4.519531 -7.457031 26.21875 4.066406 63.734375 4.066406 Z M 76.84375 -21.921875 C 56.5 -21.921875 45.878906 -26.441406 45.878906 -34.804688 C 45.878906 -42.941406 57.859375 -47.914062 81.363281 -49.722656 L 135.378906 -54.242188 L 135.378906 -51.304688 C 135.378906 -34.578125 111.195312 -21.921875 76.84375 -21.921875 Z M 76.84375 -21.921875 "/></g></g></g><g fill="#f1faee" fill-opacity="1"><g transform="translate(1490.814262, 391.895077)"><g/></g></g><g fill="#f1faee" fill-opacity="1"><g transform="translate(1550.028001, 391.895077)"><g><path d="M 104.867188 5.199219 C 159.785156 5.199219 195.949219 -16.722656 195.722656 -48.816406 C 195.722656 -76.390625 173.800781 -90.855469 122.496094 -96.730469 L 88.820312 -101.023438 C 65.769531 -103.738281 55.824219 -108.710938 56.050781 -117.296875 C 56.050781 -129.050781 74.355469 -136.734375 99.894531 -136.960938 C 126.339844 -136.960938 152.328125 -127.695312 167.472656 -113.90625 L 183.066406 -139.898438 C 165.664062 -155.71875 134.25 -166.117188 99.667969 -166.117188 C 47.460938 -166.117188 11.753906 -146.90625 11.527344 -114.132812 C 11.527344 -87.464844 31.640625 -73.90625 78.199219 -68.480469 L 112.097656 -63.960938 C 139.671875 -60.570312 151.425781 -54.46875 151.425781 -44.976562 C 151.425781 -33.222656 134.023438 -25.3125 107.128906 -25.3125 C 73 -25.3125 38.195312 -38.648438 22.828125 -57.40625 L 4.519531 -30.738281 C 22.828125 -9.71875 63.28125 5.199219 104.867188 5.199219 Z M 104.867188 5.199219 "/></g></g></g><g fill="#f1faee" fill-opacity="1"><g transform="translate(1750.269939, 391.895077)"><g><path d="M 92.890625 4.066406 C 119.785156 4.066406 139.671875 -4.972656 154.363281 -22.148438 L 142.160156 -44.75 C 131.988281 -32.09375 119.558594 -24.859375 103.511719 -24.859375 C 86.109375 -24.859375 77.746094 -33.449219 77.972656 -49.042969 L 77.972656 -89.5 L 150.292969 -89.5 L 150.292969 -115.714844 L 77.972656 -115.714844 L 77.972656 -156.171875 L 36.386719 -148.710938 L 36.386719 -115.714844 L 1.128906 -115.714844 L 1.128906 -89.5 L 36.613281 -89.5 L 36.613281 -40.679688 C 36.839844 -12.65625 57.632812 4.066406 92.890625 4.066406 Z M 92.890625 4.066406 "/></g></g></g><g fill="#f1faee" fill-opacity="1"><g transform="translate(1907.570695, 391.895077)"><g><path d="M 95.828125 4.066406 C 150.519531 4.066406 186.230469 -20.566406 186.230469 -57.859375 C 186.230469 -95.148438 150.519531 -119.785156 95.828125 -119.785156 C 41.359375 -119.785156 5.648438 -95.148438 5.648438 -57.859375 C 5.648438 -20.566406 41.359375 4.066406 95.828125 4.066406 Z M 95.828125 -21.921875 C 66.21875 -21.921875 47.007812 -36.160156 47.007812 -57.859375 C 47.007812 -79.554688 66.21875 -93.792969 95.828125 -93.792969 C 125.660156 -93.792969 144.871094 -79.554688 144.871094 -57.859375 C 144.871094 -36.160156 125.660156 -21.921875 95.828125 -21.921875 Z M 95.828125 -21.921875 "/></g></g></g><g fill="#f1faee" fill-opacity="1"><g transform="translate(2099.450398, 391.895077)"><g><path d="M 97.636719 -119.785156 C 76.390625 -119.785156 58.082031 -108.257812 49.496094 -89.5 L 49.269531 -89.5 L 43.84375 -115.714844 L 9.039062 -115.714844 L 9.039062 0 L 50.398438 0 L 50.398438 -51.078125 C 50.398438 -76.84375 62.152344 -93.339844 81.363281 -93.339844 C 94.695312 -93.339844 104.1875 -82.492188 105.320312 -64.410156 L 142.835938 -72.324219 C 140.800781 -101.703125 123.175781 -119.785156 97.636719 -119.785156 Z M 97.636719 -119.785156 "/></g></g></g><g fill="#f1faee" fill-opacity="1"><g transform="translate(2245.224722, 391.895077)"><g><path d="M 101.703125 4.066406 C 133.570312 4.066406 164.308594 -4.519531 180.128906 -16.722656 L 167.019531 -37.515625 C 154.816406 -28.476562 129.953125 -21.695312 104.867188 -21.695312 C 78.199219 -21.695312 54.695312 -30.738281 49.722656 -47.460938 L 177.414062 -47.460938 C 178.320312 -50.851562 178.546875 -55.371094 178.546875 -58.082031 C 178.546875 -94.921875 144.191406 -119.785156 93.566406 -119.785156 C 41.8125 -119.785156 5.648438 -94.246094 5.648438 -58.308594 C 5.648438 -21.019531 44.976562 4.066406 101.703125 4.066406 Z M 48.816406 -67.574219 C 50.851562 -83.621094 69.382812 -95.148438 92.890625 -95.148438 C 116.621094 -95.148438 135.378906 -84.300781 136.734375 -67.574219 Z M 48.816406 -67.574219 "/></g></g></g></svg>